ffmpeg started on 2025-05-19 at 20:48:20
Report written to "D:\Convert\FFMetrics\reports\ssim_report-6.txt"
Log level: 32
Command line:
ffmpeg -hide_banner -nostdin -i "G:\\\xc0\xed\xe8\xec\xe5\\\xce\xed\xe3\xee\xe8\xed\xe3\xe8\\!_32_\xce\xf1\xe5\xed\xfc_2023\\\xc7\xe0\xe1\xee\xf2\xfb \xe7\xe0\xef\xe5\xf0\xf2\xee\xe9 \xef\xf0\xe8\xed\xf6\xe5\xf1\xf1\xfb \xe2\xe0\xec\xef\xe8\xf0\xee\xe2\\Hikikomari_Kyuuketsuki_no_Monmon_[02]_[AniLibria_TV]_[WEBRip_1080p]_HEVC.mkv" -i "G:\\\xc0\xed\xe8\xec\xe5\\\xce\xed\xe3\xee\xe8\xed\xe3\xe8\\!_32_\xce\xf1\xe5\xed\xfc_2023\\\xc7\xe0\xe1\xee\xf2\xfb \xe7\xe0\xef\xe5\xf0\xf2\xee\xe9 \xef\xf0\xe8\xed\xf6\xe5\xf1\xf1\xfb \xe2\xe0\xec\xef\xe8\xf0\xee\xe2\\Hikikomari_Kyuuketsuki_no_Monmon_[02]_[AniLibria_TV]_[WEBRip_1080p].mkv" -lavfi "[0:v]settb=AVTB,setpts=PTS-STARTPTS,format=pix_fmts=yuv420p10,fps=24000/1001,scale=1920:1080:flags=bicubic[main];[1:v]settb=AVTB,setpts=PTS-STARTPTS,format=pix_fmts=yuv420p,fps=24000/1001,scale=1920:1080:flags=bicubic[ref];[main][ref]ssim=eof_action=endall:stats_file='D\\:/Convert/FFMetrics/logs/ssim_logfile-6.txt'" -f null -
Input #0, matroska,webm, from 'G:\Аниме\Онгоинги\!_32_Осень_2023\Заботы запертой принцессы вампиров\Hikikomari_Kyuuketsuki_no_Monmon_[02]_[AniLibria_TV]_[WEBRip_1080p]_HEVC.mkv':
  Metadata:
    ENCODER         : Lavf61.7.100
  Duration: 00:25:12.58, start: -0.021000, bitrate: 1490 kb/s
  Stream #0:0(jpn): Video: hevc (Main 10), yuv420p10le(tv, bt709, progressive), 1920x1080 [SAR 1:1 DAR 16:9], 23.98 fps, 23.98 tbr, 1k tbn (default)
      Metadata:
        title           : Original
        ENCODER         : Lavc61.19.100 libx265
        BPS             : 1289398
        DURATION        : 00:25:12.510708333
        NUMBER_OF_FRAMES: 36264
        NUMBER_OF_BYTES : 243778431
        _STATISTICS_WRITING_APP: mkvpropedit v66.0.0 ('Josie') 64-bit
        _STATISTICS_WRITING_DATE_UTC: 2025-05-19 11:19:37
        _STATISTICS_TAGS: BPS DURATION NUMBER_OF_FRAMES NUMBER_OF_BYTES
  Stream #0:1(rus): Audio: aac (LC), 48000 Hz, stereo, fltp (default)
      Metadata:
        title           : AniLibria.TV
        ENCODER         : Lavc61.19.100 aac
        BPS             : 195705
        DURATION        : 00:25:12.554000000
        NUMBER_OF_FRAMES: 70902
        NUMBER_OF_BYTES : 37001893
        _STATISTICS_WRITING_APP: mkvpropedit v66.0.0 ('Josie') 64-bit
        _STATISTICS_WRITING_DATE_UTC: 2025-05-19 11:19:37
        _STATISTICS_TAGS: BPS DURATION NUMBER_OF_FRAMES NUMBER_OF_BYTES
  Stream #0:2(rus): Subtitle: ass (ssa) (default)
      Metadata:
        title           : Надписи
        BPS             : 344
        DURATION        : 00:24:34.560000000
        NUMBER_OF_FRAMES: 29
        NUMBER_OF_BYTES : 63450
        _STATISTICS_WRITING_APP: mkvpropedit v66.0.0 ('Josie') 64-bit
        _STATISTICS_WRITING_DATE_UTC: 2025-05-19 11:19:37
        _STATISTICS_TAGS: BPS DURATION NUMBER_OF_FRAMES NUMBER_OF_BYTES
  Stream #0:3(rus): Subtitle: ass (ssa)
      Metadata:
        title           : Субтитры
        BPS             : 491
        DURATION        : 00:25:11.030000000
        NUMBER_OF_FRAMES: 399
        NUMBER_OF_BYTES : 92904
        _STATISTICS_WRITING_APP: mkvpropedit v66.0.0 ('Josie') 64-bit
        _STATISTICS_WRITING_DATE_UTC: 2025-05-19 11:19:37
        _STATISTICS_TAGS: BPS DURATION NUMBER_OF_FRAMES NUMBER_OF_BYTES
Input #1, matroska,webm, from 'G:\Аниме\Онгоинги\!_32_Осень_2023\Заботы запертой принцессы вампиров\Hikikomari_Kyuuketsuki_no_Monmon_[02]_[AniLibria_TV]_[WEBRip_1080p].mkv':
  Metadata:
    encoder         : libebml v1.4.2 + libmatroska v1.6.4
    creation_time   : 2025-01-14T16:57:49.000000Z
  Duration: 00:25:12.55, start: 0.000000, bitrate: 2658 kb/s
  Stream #1:0(jpn): Video: h264 (High), yuv420p(progressive), 1920x1080 [SAR 1:1 DAR 16:9], 23.98 fps, 23.98 tbr, 1k tbn (default)
      Metadata:
        title           : Original
        BPS             : 2459383
        DURATION        : 00:25:12.511000000
        NUMBER_OF_FRAMES: 36264
        NUMBER_OF_BYTES : 464980588
        _STATISTICS_WRITING_APP: mkvmerge v66.0.0 ('Josie') 64-bit
        _STATISTICS_WRITING_DATE_UTC: 2025-01-14 16:57:49
        _STATISTICS_TAGS: BPS DURATION NUMBER_OF_FRAMES NUMBER_OF_BYTES
  Stream #1:1(rus): Audio: aac (LC), 48000 Hz, stereo, fltp (default)
      Metadata:
        title           : AniLibria.TV
        BPS             : 192000
        DURATION        : 00:25:12.554000000
        NUMBER_OF_FRAMES: 70901
        NUMBER_OF_BYTES : 36301313
        _STATISTICS_WRITING_APP: mkvmerge v66.0.0 ('Josie') 64-bit
        _STATISTICS_WRITING_DATE_UTC: 2025-01-14 16:57:49
        _STATISTICS_TAGS: BPS DURATION NUMBER_OF_FRAMES NUMBER_OF_BYTES
  Stream #1:2(rus): Subtitle: ass (ssa) (default)
      Metadata:
        title           : Надписи
        BPS             : 344
        DURATION        : 00:24:34.560000000
        NUMBER_OF_FRAMES: 29
        NUMBER_OF_BYTES : 63450
        _STATISTICS_WRITING_APP: mkvmerge v66.0.0 ('Josie') 64-bit
        _STATISTICS_WRITING_DATE_UTC: 2025-01-14 16:57:49
        _STATISTICS_TAGS: BPS DURATION NUMBER_OF_FRAMES NUMBER_OF_BYTES
  Stream #1:3(rus): Subtitle: ass (ssa)
      Metadata:
        title           : Субтитры
        BPS             : 491
        DURATION        : 00:25:11.030000000
        NUMBER_OF_FRAMES: 399
        NUMBER_OF_BYTES : 92904
        _STATISTICS_WRITING_APP: mkvmerge v66.0.0 ('Josie') 64-bit
        _STATISTICS_WRITING_DATE_UTC: 2025-01-14 16:57:49
        _STATISTICS_TAGS: BPS DURATION NUMBER_OF_FRAMES NUMBER_OF_BYTES
  Stream #1:4: Attachment: ttf
      Metadata:
        filename        : allods_west.ttf
        mimetype        : application/x-truetype-font
  Stream #1:5: Attachment: ttf
      Metadata:
        filename        : phagspab.ttf
        mimetype        : application/x-truetype-font
  Stream #1:6: Attachment: ttf
      Metadata:
        filename        : TAGIRDPNORMAL.TTF
        mimetype        : application/x-truetype-font
  Stream #1:7: Attachment: ttf
      Metadata:
        filename        : tt0142m.ttf
        mimetype        : application/x-truetype-font
  Stream #1:8: Attachment: ttf
      Metadata:
        filename        : AGCOSCR.TTF
        mimetype        : application/x-truetype-font
  Stream #1:9: Attachment: ttf
      Metadata:
        filename        : Roboto-Medium.ttf
        mimetype        : application/x-truetype-font
Stream mapping:
  Stream #0:0 (hevc) -> settb:default
  Stream #1:0 (h264) -> settb:default
  ssim:default -> Stream #0:0 (wrapped_avframe)
  Stream #0:1 -> #0:1 (aac (native) -> pcm_s16le (native))
[swscaler @ 0000029ef8738180] No accelerated colorspace conversion found from yuv420p to bgr48le.
[swscaler @ 0000029ef885ce80] No accelerated colorspace conversion found from yuv420p to bgr48le.
[swscaler @ 0000029ef89fc300] No accelerated colorspace conversion found from yuv420p to bgr48le.
[swscaler @ 0000029ef8b91fc0] No accelerated colorspace conversion found from yuv420p to bgr48le.
[swscaler @ 0000029ef8bb4080] No accelerated colorspace conversion found from yuv420p to bgr48le.
[swscaler @ 0000029ef8d2cc80] No accelerated colorspace conversion found from yuv420p to bgr48le.
[swscaler @ 0000029ef8eb2040] No accelerated colorspace conversion found from yuv420p to bgr48le.
[swscaler @ 0000029ef8ece300] No accelerated colorspace conversion found from yuv420p to bgr48le.
[swscaler @ 0000029efe4abac0] No accelerated colorspace conversion found from yuv420p to bgr48le.
[swscaler @ 0000029efe787c80] No accelerated colorspace conversion found from yuv420p to bgr48le.
[swscaler @ 0000029efe7a9d80] No accelerated colorspace conversion found from yuv420p to bgr48le.
[swscaler @ 0000029efe962040] No accelerated colorspace conversion found from yuv420p to bgr48le.
[swscaler @ 0000029efe97c000] No accelerated colorspace conversion found from yuv420p to bgr48le.
[swscaler @ 0000029efecce140] No accelerated colorspace conversion found from yuv420p to bgr48le.
[swscaler @ 0000029efed6c040] No accelerated colorspace conversion found from yuv420p to bgr48le.
[swscaler @ 0000029efedd06c0] No accelerated colorspace conversion found from yuv420p to bgr48le.
Output #0, null, to 'pipe:':
  Metadata:
    encoder         : Lavf61.7.100
  Stream #0:0: Video: wrapped_avframe, yuv420p10le(tv, bt709, progressive), 1920x1080 [SAR 1:1 DAR 16:9], q=2-31, 200 kb/s, 23.98 fps, 23.98 tbn
      Metadata:
        encoder         : Lavc61.19.100 wrapped_avframe
  Stream #0:1(rus): Audio: pcm_s16le, 48000 Hz, stereo, s16, 1536 kb/s (default)
      Metadata:
        title           : AniLibria.TV
        _STATISTICS_TAGS: BPS DURATION NUMBER_OF_FRAMES NUMBER_OF_BYTES
        BPS             : 195705
        DURATION        : 00:25:12.554000000
        NUMBER_OF_FRAMES: 70902
        NUMBER_OF_BYTES : 37001893
        _STATISTICS_WRITING_APP: mkvpropedit v66.0.0 ('Josie') 64-bit
        _STATISTICS_WRITING_DATE_UTC: 2025-05-19 11:19:37
        encoder         : Lavc61.19.100 pcm_s16le
frame=   30 fps=0.0 q=-0.0 size=N/A time=00:00:01.25 bitrate=N/A speed=2.48x    frame=   70 fps= 68 q=-0.0 size=N/A time=00:00:02.91 bitrate=N/A speed=2.84x    frame=  111 fps= 72 q=-0.0 size=N/A time=00:00:04.62 bitrate=N/A speed=2.99x    frame=  151 fps= 73 q=-0.0 size=N/A time=00:00:06.29 bitrate=N/A speed=3.04x    frame=  187 fps= 72 q=-0.0 size=N/A time=00:00:07.79 bitrate=N/A speed=3.02x    frame=  231 fps= 74 q=-0.0 size=N/A time=00:00:09.63 bitrate=N/A speed= 3.1x    frame=  268 fps= 74 q=-0.0 size=N/A time=00:00:11.17 bitrate=N/A speed=3.09x    frame=  311 fps= 75 q=-0.0 size=N/A time=00:00:12.97 bitrate=N/A speed=3.13x    frame=  349 fps= 75 q=-0.0 size=N/A time=00:00:14.55 bitrate=N/A speed=3.13x    frame=  381 fps= 74 q=-0.0 size=N/A time=00:00:15.89 bitrate=N/A speed=3.08x    frame=  428 fps= 75 q=-0.0 size=N/A time=00:00:17.85 bitrate=N/A speed=3.14x    frame=  462 fps= 75 q=-0.0 size=N/A time=00:00:19.26 bitrate=N/A speed=3.11x    frame=  507 fps= 75 q=-0.0 size=N/A time=00:00:21.14 bitrate=N/A speed=3.15x    frame=  547 fps= 76 q=-0.0 size=N/A time=00:00:22.81 bitrate=N/A speed=3.15x    frame=  585 fps= 76 q=-0.0 size=N/A time=00:00:24.39 bitrate=N/A speed=3.15x    frame=  624 fps= 76 q=-0.0 size=N/A time=00:00:26.02 bitrate=N/A speed=3.15x    frame=  655 fps= 75 q=-0.0 size=N/A time=00:00:27.31 bitrate=N/A speed=3.11x    frame=  702 fps= 76 q=-0.0 size=N/A time=00:00:29.27 bitrate=N/A speed=3.15x    frame=  743 fps= 76 q=-0.0 size=N/A time=00:00:30.98 bitrate=N/A speed=3.16x    frame=  782 fps= 76 q=-0.0 size=N/A time=00:00:32.61 bitrate=N/A speed=3.16x    frame=  815 fps= 75 q=-0.0 size=N/A time=00:00:33.99 bitrate=N/A speed=3.14x    frame=  860 fps= 76 q=-0.0 size=N/A time=00:00:35.86 bitrate=N/A speed=3.16x    frame=  898 fps= 76 q=-0.0 size=N/A time=00:00:37.45 bitrate=N/A speed=3.16x    frame=  938 fps= 76 q=-0.0 size=N/A time=00:00:39.12 bitrate=N/A speed=3.16x    frame=  969 fps= 75 q=-0.0 size=N/A time=00:00:40.41 bitrate=N/A speed=3.13x    frame= 1014 fps= 76 q=-0.0 size=N/A time=00:00:42.29 bitrate=N/A speed=3.15x    frame= 1050 fps= 75 q=-0.0 size=N/A time=00:00:43.79 bitrate=N/A speed=3.14x    frame= 1091 fps= 76 q=-0.0 size=N/A time=00:00:45.50 bitrate=N/A speed=3.15x    frame= 1130 fps= 76 q=-0.0 size=N/A time=00:00:47.13 bitrate=N/A speed=3.15x    frame= 1166 fps= 75 q=-0.0 size=N/A time=00:00:48.63 bitrate=N/A speed=3.14x    frame= 1209 fps= 76 q=-0.0 size=N/A time=00:00:50.42 bitrate=N/A speed=3.15x    frame= 1247 fps= 75 q=-0.0 size=N/A time=00:00:52.01 bitrate=N/A speed=3.15x    frame= 1287 fps= 76 q=-0.0 size=N/A time=00:00:53.67 bitrate=N/A speed=3.15x    frame= 1326 fps= 76 q=-0.0 size=N/A time=00:00:55.30 bitrate=N/A speed=3.15x    frame= 1366 fps= 76 q=-0.0 size=N/A time=00:00:56.97 bitrate=N/A speed=3.15x    frame= 1405 fps= 76 q=-0.0 size=N/A time=00:00:58.60 bitrate=N/A speed=3.16x    frame= 1437 fps= 75 q=-0.0 size=N/A time=00:00:59.93 bitrate=N/A speed=3.14x    frame= 1473 fps= 75 q=-0.0 size=N/A time=00:01:01.43 bitrate=N/A speed=3.13x    frame= 1517 fps= 75 q=-0.0 size=N/A time=00:01:03.27 bitrate=N/A speed=3.15x    frame= 1563 fps= 76 q=-0.0 size=N/A time=00:01:05.19 bitrate=N/A speed=3.16x    frame= 1599 fps= 76 q=-0.0 size=N/A time=00:01:06.69 bitrate=N/A speed=3.15x    frame= 1641 fps= 76 q=-0.0 size=N/A time=00:01:08.44 bitrate=N/A speed=3.16x    frame= 1679 fps= 76 q=-0.0 size=N/A time=00:01:10.02 bitrate=N/A speed=3.16x    frame= 1715 fps= 76 q=-0.0 size=N/A time=00:01:11.52 bitrate=N/A speed=3.15x    frame= 1754 fps= 76 q=-0.0 size=N/A time=00:01:13.15 bitrate=N/A speed=3.15x    frame= 1797 fps= 76 q=-0.0 size=N/A time=00:01:14.94 bitrate=N/A speed=3.16x    frame= 1830 fps= 75 q=-0.0 size=N/A time=00:01:16.32 bitrate=N/A speed=3.15x    frame= 1875 fps= 76 q=-0.0 size=N/A time=00:01:18.20 bitrate=N/A speed=3.16x    frame= 1911 fps= 76 q=-0.0 size=N/A time=00:01:19.70 bitrate=N/A speed=3.15x    frame= 1953 fps= 76 q=-0.0 size=N/A time=00:01:21.45 bitrate=N/A speed=3.16x    frame= 1992 fps= 76 q=-0.0 size=N/A time=00:01:23.08 bitrate=N/A speed=3.16x    frame= 2018 fps= 75 q=-0.0 size=N/A time=00:01:24.16 bitrate=N/A speed=3.14x    frame= 2070 fps= 76 q=-0.0 size=N/A time=00:01:26.33 bitrate=N/A speed=3.16x    frame= 2103 fps= 75 q=-0.0 size=N/A time=00:01:27.71 bitrate=N/A speed=3.15x    frame= 2148 fps= 76 q=-0.0 size=N/A time=00:01:29.58 bitrate=N/A speed=3.16x    frame= 2184 fps= 76 q=-0.0 size=N/A time=00:01:31.09 bitrate=N/A speed=3.15x    frame= 2227 fps= 76 q=-0.0 size=N/A time=00:01:32.88 bitrate=N/A speed=3.16x    frame= 2267 fps= 76 q=-0.0 size=N/A time=00:01:34.55 bitrate=N/A speed=3.16x    frame= 2302 fps= 76 q=-0.0 size=N/A time=00:01:36.01 bitrate=N/A speed=3.15x    frame= 2346 fps= 76 q=-0.0 size=N/A time=00:01:37.84 bitrate=N/A speed=3.16x    frame= 2385 fps= 76 q=-0.0 size=N/A time=00:01:39.47 bitrate=N/A speed=3.16x    frame= 2417 fps= 76 q=-0.0 size=N/A time=00:01:40.80 bitrate=N/A speed=3.15x    frame= 2463 fps= 76 q=-0.0 size=N/A time=00:01:42.72 bitrate=N/A speed=3.16x    frame= 2499 fps= 76 q=-0.0 size=N/A time=00:01:44.22 bitrate=N/A speed=3.15x    frame= 2535 fps= 76 q=-0.0 size=N/A time=00:01:45.73 bitrate=N/A speed=3.15x    frame= 2579 fps= 76 q=-0.0 size=N/A time=00:01:47.56 bitrate=N/A speed=3.16x    frame= 2618 fps= 76 q=-0.0 size=N/A time=00:01:49.19 bitrate=N/A speed=3.16x    frame= 2657 fps= 76 q=-0.0 size=N/A time=00:01:50.81 bitrate=N/A speed=3.16x    frame= 2695 fps= 76 q=-0.0 size=N/A time=00:01:52.40 bitrate=N/A speed=3.16x    frame= 2726 fps= 75 q=-0.0 size=N/A time=00:01:53.69 bitrate=N/A speed=3.15x    frame= 2768 fps= 76 q=-0.0 size=N/A time=00:01:55.44 bitrate=N/A speed=3.15x    frame= 2812 fps= 76 q=-0.0 size=N/A time=00:01:57.28 bitrate=N/A speed=3.16x    frame= 2850 fps= 76 q=-0.0 size=N/A time=00:01:58.86 bitrate=N/A speed=3.15x    frame= 2888 fps= 76 q=-0.0 size=N/A time=00:02:00.45 bitrate=N/A speed=3.15x    frame= 2927 fps= 76 q=-0.0 size=N/A time=00:02:02.08 bitrate=N/A speed=3.15x    frame= 2965 fps= 76 q=-0.0 size=N/A time=00:02:03.66 bitrate=N/A speed=3.15x    frame= 3006 fps= 76 q=-0.0 size=N/A time=00:02:05.37 bitrate=N/A speed=3.15x    frame= 3044 fps= 76 q=-0.0 size=N/A time=00:02:06.96 bitrate=N/A speed=3.15x    frame= 3083 fps= 76 q=-0.0 size=N/A time=00:02:08.58 bitrate=N/A speed=3.15x    frame= 3121 fps= 76 q=-0.0 size=N/A time=00:02:10.17 bitrate=N/A speed=3.15x    frame= 3161 fps= 76 q=-0.0 size=N/A time=00:02:11.84 bitrate=N/A speed=3.15x    frame= 3201 fps= 76 q=-0.0 size=N/A time=00:02:13.50 bitrate=N/A speed=3.15x    frame= 3239 fps= 76 q=-0.0 size=N/A time=00:02:15.09 bitrate=N/A speed=3.15x    frame= 3275 fps= 76 q=-0.0 size=N/A time=00:02:16.59 bitrate=N/A speed=3.15x    frame= 3317 fps= 76 q=-0.0 size=N/A time=00:02:18.34 bitrate=N/A speed=3.15x    frame= 3354 fps= 76 q=-0.0 size=N/A time=00:02:19.88 bitrate=N/A speed=3.15x    frame= 3395 fps= 76 q=-0.0 size=N/A time=00:02:21.59 bitrate=N/A speed=3.15x    frame= 3426 fps= 75 q=-0.0 size=N/A time=00:02:22.89 bitrate=N/A speed=3.15x    frame= 3472 fps= 76 q=-0.0 size=N/A time=00:02:24.81 bitrate=N/A speed=3.15x    frame= 3511 fps= 76 q=-0.0 size=N/A time=00:02:26.43 bitrate=N/A speed=3.15x    frame= 3544 fps= 75 q=-0.0 size=N/A time=00:02:27.81 bitrate=N/A speed=3.15x    frame= 3587 fps= 76 q=-0.0 size=N/A time=00:02:29.60 bitrate=N/A speed=3.15x    frame= 3625 fps= 76 q=-0.0 size=N/A time=00:02:31.19 bitrate=N/A speed=3.15x    frame= 3665 fps= 76 q=-0.0 size=N/A time=00:02:32.86 bitrate=N/A speed=3.15x    frame= 3702 fps= 76 q=-0.0 size=N/A time=00:02:34.40 bitrate=N/A speed=3.15x    frame= 3744 fps= 76 q=-0.0 size=N/A time=00:02:36.15 bitrate=N/A speed=3.15x    frame= 3778 fps= 75 q=-0.0 size=N/A time=00:02:37.57 bitrate=N/A speed=3.15x    frame= 3822 fps= 76 q=-0.0 size=N/A time=00:02:39.40 bitrate=N/A speed=3.15x    frame= 3859 fps= 76 q=-0.0 size=N/A time=00:02:40.95 bitrate=N/A speed=3.15x    frame= 3900 fps= 76 q=-0.0 size=N/A time=00:02:42.66 bitrate=N/A speed=3.15x    frame= 3938 fps= 76 q=-0.0 size=N/A time=00:02:44.24 bitrate=N/A speed=3.15x    frame= 3978 fps= 76 q=-0.0 size=N/A time=00:02:45.91 bitrate=N/A speed=3.15x    frame= 4016 fps= 76 q=-0.0 size=N/A time=00:02:47.50 bitrate=N/A speed=3.15x    frame= 4056 fps= 76 q=-0.0 size=N/A time=00:02:49.16 bitrate=N/A speed=3.15x    frame= 4094 fps= 76 q=-0.0 size=N/A time=00:02:50.75 bitrate=N/A speed=3.15x    frame= 4128 fps= 75 q=-0.0 size=N/A time=00:02:52.17 bitrate=N/A speed=3.15x    frame= 4172 fps= 76 q=-0.0 size=N/A time=00:02:54.00 bitrate=N/A speed=3.15x    frame= 4210 fps= 76 q=-0.0 size=N/A time=00:02:55.59 bitrate=N/A speed=3.15x    frame= 4235 fps= 75 q=-0.0 size=N/A time=00:02:56.63 bitrate=N/A speed=3.14x    frame= 4281 fps= 75 q=-0.0 size=N/A time=00:02:58.55 bitrate=N/A speed=3.15x    frame= 4329 fps= 76 q=-0.0 size=N/A time=00:03:00.55 bitrate=N/A speed=3.15x    frame= 4367 fps= 76 q=-0.0 size=N/A time=00:03:02.14 bitrate=N/A speed=3.15x    frame= 4395 fps= 75 q=-0.0 size=N/A time=00:03:03.30 bitrate=N/A speed=3.14x    frame= 4440 fps= 75 q=-0.0 size=N/A time=00:03:05.18 bitrate=N/A speed=3.15x    frame= 4484 fps= 76 q=-0.0 size=N/A time=00:03:07.02 bitrate=N/A speed=3.15x    frame= 4521 fps= 76 q=-0.0 size=N/A time=00:03:08.56 bitrate=N/A speed=3.15x    frame= 4559 fps= 76 q=-0.0 size=N/A time=00:03:10.14 bitrate=N/A speed=3.15x    frame= 4598 fps= 75 q=-0.0 size=N/A time=00:03:11.77 bitrate=N/A speed=3.15x    frame= 4635 fps= 75 q=-0.0 size=N/A time=00:03:13.31 bitrate=N/A speed=3.15x    frame= 4672 fps= 75 q=-0.0 size=N/A time=00:03:14.86 bitrate=N/A speed=3.15x    frame= 4711 fps= 75 q=-0.0 size=N/A time=00:03:16.48 bitrate=N/A speed=3.15x    frame= 4750 fps= 75 q=-0.0 size=N/A time=00:03:18.11 bitrate=N/A speed=3.15x    frame= 4788 fps= 75 q=-0.0 size=N/A time=00:03:19.69 bitrate=N/A speed=3.15x    frame= 4826 fps= 75 q=-0.0 size=N/A time=00:03:21.28 bitrate=N/A speed=3.15x    frame= 4864 fps= 75 q=-0.0 size=N/A time=00:03:22.86 bitrate=N/A speed=3.14x    frame= 4898 fps= 75 q=-0.0 size=N/A time=00:03:24.28 bitrate=N/A speed=3.14x    frame= 4941 fps= 75 q=-0.0 size=N/A time=00:03:26.08 bitrate=N/A speed=3.14x    frame= 4979 fps= 75 q=-0.0 size=N/A time=00:03:27.66 bitrate=N/A speed=3.14x    frame= 5017 fps= 75 q=-0.0 size=N/A time=00:03:29.25 bitrate=N/A speed=3.14x    frame= 5056 fps= 75 q=-0.0 size=N/A time=00:03:30.87 bitrate=N/A speed=3.14x    frame= 5097 fps= 75 q=-0.0 size=N/A time=00:03:32.58 bitrate=N/A speed=3.14x    frame= 5134 fps= 75 q=-0.0 size=N/A time=00:03:34.13 bitrate=N/A speed=3.14x    frame= 5173 fps= 75 q=-0.0 size=N/A time=00:03:35.75 bitrate=N/A speed=3.14x    frame= 5213 fps= 75 q=-0.0 size=N/A time=00:03:37.42 bitrate=N/A speed=3.14x    frame= 5248 fps= 75 q=-0.0 size=N/A time=00:03:38.88 bitrate=N/A speed=3.14x    frame= 5293 fps= 75 q=-0.0 size=N/A time=00:03:40.76 bitrate=N/A speed=3.15x    frame= 5332 fps= 75 q=-0.0 size=N/A time=00:03:42.38 bitrate=N/A speed=3.15x    frame= 5370 fps= 75 q=-0.0 size=N/A time=00:03:43.97 bitrate=N/A speed=3.15x    frame= 5411 fps= 75 q=-0.0 size=N/A time=00:03:45.68 bitrate=N/A speed=3.15x    frame= 5444 fps= 75 q=-0.0 size=N/A time=00:03:47.06 bitrate=N/A speed=3.14x    frame= 5487 fps= 75 q=-0.0 size=N/A time=00:03:48.85 bitrate=N/A speed=3.15x    frame= 5525 fps= 75 q=-0.0 size=N/A time=00:03:50.43 bitrate=N/A speed=3.14x    frame= 5559 fps= 75 q=-0.0 size=N/A time=00:03:51.85 bitrate=N/A speed=3.14x    frame= 5603 fps= 75 q=-0.0 size=N/A time=00:03:53.69 bitrate=N/A speed=3.14x    frame= 5641 fps= 75 q=-0.0 size=N/A time=00:03:55.27 bitrate=N/A speed=3.14x    frame= 5679 fps= 75 q=-0.0 size=N/A time=00:03:56.86 bitrate=N/A speed=3.14x    frame= 5718 fps= 75 q=-0.0 size=N/A time=00:03:58.48 bitrate=N/A speed=3.14x    frame= 5755 fps= 75 q=-0.0 size=N/A time=00:04:00.03 bitrate=N/A speed=3.14x    frame= 5795 fps= 75 q=-0.0 size=N/A time=00:04:01.69 bitrate=N/A speed=3.14x    frame= 5832 fps= 75 q=-0.0 size=N/A time=00:04:03.24 bitrate=N/A speed=3.14x    frame= 5867 fps= 75 q=-0.0 size=N/A time=00:04:04.70 bitrate=N/A speed=3.14x    frame= 5912 fps= 75 q=-0.0 size=N/A time=00:04:06.57 bitrate=N/A speed=3.14x    frame= 5952 fps= 75 q=-0.0 size=N/A time=00:04:08.24 bitrate=N/A speed=3.14x    frame= 5984 fps= 75 q=-0.0 size=N/A time=00:04:09.58 bitrate=N/A speed=3.14x    frame= 6028 fps= 75 q=-0.0 size=N/A time=00:04:11.41 bitrate=N/A speed=3.14x    frame= 6067 fps= 75 q=-0.0 size=N/A time=00:04:13.04 bitrate=N/A speed=3.14x    frame= 6104 fps= 75 q=-0.0 size=N/A time=00:04:14.58 bitrate=N/A speed=3.14x    frame= 6142 fps= 75 q=-0.0 size=N/A time=00:04:16.17 bitrate=N/A speed=3.14x    frame= 6178 fps= 75 q=-0.0 size=N/A time=00:04:17.67 bitrate=N/A speed=3.14x    frame= 6222 fps= 75 q=-0.0 size=N/A time=00:04:19.50 bitrate=N/A speed=3.14x    frame= 6259 fps= 75 q=-0.0 size=N/A time=00:04:21.05 bitrate=N/A speed=3.14x    frame= 6286 fps= 75 q=-0.0 size=N/A time=00:04:22.17 bitrate=N/A speed=3.14x    frame= 6340 fps= 75 q=-0.0 size=N/A time=00:04:24.43 bitrate=N/A speed=3.14x    frame= 6379 fps= 75 q=-0.0 size=N/A time=00:04:26.05 bitrate=N/A speed=3.14x    frame= 6412 fps= 75 q=-0.0 size=N/A time=00:04:27.43 bitrate=N/A speed=3.14x    frame= 6458 fps= 75 q=-0.0 size=N/A time=00:04:29.35 bitrate=N/A speed=3.14x    frame= 6496 fps= 75 q=-0.0 size=N/A time=00:04:30.93 bitrate=N/A speed=3.14x    frame= 6529 fps= 75 q=-0.0 size=N/A time=00:04:32.31 bitrate=N/A speed=3.14x    frame= 6578 fps= 75 q=-0.0 size=N/A time=00:04:34.35 bitrate=N/A speed=3.15x    frame= 6618 fps= 75 q=-0.0 size=N/A time=00:04:36.02 bitrate=N/A speed=3.15x    frame= 6657 fps= 75 q=-0.0 size=N/A time=00:04:37.65 bitrate=N/A speed=3.15x    frame= 6696 fps= 75 q=-0.0 size=N/A time=00:04:39.27 bitrate=N/A speed=3.15x    frame= 6734 fps= 75 q=-0.0 size=N/A time=00:04:40.86 bitrate=N/A speed=3.15x    frame= 6774 fps= 75 q=-0.0 size=N/A time=00:04:42.53 bitrate=N/A speed=3.15x    frame= 6813 fps= 75 q=-0.0 size=N/A time=00:04:44.15 bitrate=N/A speed=3.15x    frame= 6846 fps= 75 q=-0.0 size=N/A time=00:04:45.53 bitrate=N/A speed=3.14x    frame= 6892 fps= 75 q=-0.0 size=N/A time=00:04:47.45 bitrate=N/A speed=3.15x    frame= 6929 fps= 75 q=-0.0 size=N/A time=00:04:48.99 bitrate=N/A speed=3.15x    frame= 6971 fps= 75 q=-0.0 size=N/A time=00:04:50.74 bitrate=N/A speed=3.15x    frame= 7010 fps= 75 q=-0.0 size=N/A time=00:04:52.37 bitrate=N/A speed=3.15x    frame= 7049 fps= 75 q=-0.0 size=N/A time=00:04:54.00 bitrate=N/A speed=3.15x    frame= 7088 fps= 75 q=-0.0 size=N/A time=00:04:55.62 bitrate=N/A speed=3.15x    frame= 7127 fps= 75 q=-0.0 size=N/A time=00:04:57.25 bitrate=N/A speed=3.15x    frame= 7167 fps= 75 q=-0.0 size=N/A time=00:04:58.92 bitrate=N/A speed=3.15x    frame= 7206 fps= 75 q=-0.0 size=N/A time=00:05:00.55 bitrate=N/A speed=3.15x    frame= 7241 fps= 75 q=-0.0 size=N/A time=00:05:02.01 bitrate=N/A speed=3.15x    frame= 7283 fps= 75 q=-0.0 size=N/A time=00:05:03.76 bitrate=N/A speed=3.15x    frame= 7324 fps= 75 q=-0.0 size=N/A time=00:05:05.47 bitrate=N/A speed=3.15x    frame= 7362 fps= 75 q=-0.0 size=N/A time=00:05:07.05 bitrate=N/A speed=3.15x    frame= 7403 fps= 76 q=-0.0 size=N/A time=00:05:08.76 bitrate=N/A speed=3.15x    frame= 7442 fps= 76 q=-0.0 size=N/A time=00:05:10.39 bitrate=N/A speed=3.15x    frame= 7482 fps= 76 q=-0.0 size=N/A time=00:05:12.06 bitrate=N/A speed=3.15x    frame= 7520 fps= 76 q=-0.0 size=N/A time=00:05:13.64 bitrate=N/A speed=3.15x    frame= 7560 fps= 76 q=-0.0 size=N/A time=00:05:15.31 bitrate=N/A speed=3.15x    frame= 7599 fps= 76 q=-0.0 size=N/A time=00:05:16.94 bitrate=N/A speed=3.15x    frame= 7635 fps= 75 q=-0.0 size=N/A time=00:05:18.44 bitrate=N/A speed=3.15x    frame= 7671 fps= 75 q=-0.0 size=N/A time=00:05:19.94 bitrate=N/A speed=3.15x    frame= 7717 fps= 76 q=-0.0 size=N/A time=00:05:21.86 bitrate=N/A speed=3.15x    frame= 7756 fps= 76 q=-0.0 size=N/A time=00:05:23.48 bitrate=N/A speed=3.15x    frame= 7796 fps= 76 q=-0.0 size=N/A time=00:05:25.15 bitrate=N/A speed=3.15x    frame= 7835 fps= 76 q=-0.0 size=N/A time=00:05:26.78 bitrate=N/A speed=3.15x    frame= 7874 fps= 76 q=-0.0 size=N/A time=00:05:28.41 bitrate=N/A speed=3.15x    frame= 7904 fps= 75 q=-0.0 size=N/A time=00:05:29.66 bitrate=N/A speed=3.15x    frame= 7945 fps= 75 q=-0.0 size=N/A time=00:05:31.37 bitrate=N/A speed=3.15x    frame= 7994 fps= 76 q=-0.0 size=N/A time=00:05:33.41 bitrate=N/A speed=3.15x    frame= 8032 fps= 76 q=-0.0 size=N/A time=00:05:35.00 bitrate=N/A speed=3.15x    frame= 8072 fps= 76 q=-0.0 size=N/A time=00:05:36.66 bitrate=N/A speed=3.15x    frame= 8111 fps= 76 q=-0.0 size=N/A time=00:05:38.29 bitrate=N/A speed=3.15x    frame= 8149 fps= 76 q=-0.0 size=N/A time=00:05:39.88 bitrate=N/A speed=3.15x    frame= 8190 fps= 76 q=-0.0 size=N/A time=00:05:41.59 bitrate=N/A speed=3.15x    frame= 8228 fps= 76 q=-0.0 size=N/A time=00:05:43.17 bitrate=N/A speed=3.15x    frame= 8269 fps= 76 q=-0.0 size=N/A time=00:05:44.88 bitrate=N/A speed=3.15x    frame= 8308 fps= 76 q=-0.0 size=N/A time=00:05:46.51 bitrate=N/A speed=3.15x    frame= 8347 fps= 76 q=-0.0 size=N/A time=00:05:48.13 bitrate=N/A speed=3.15x    frame= 8386 fps= 76 q=-0.0 size=N/A time=00:05:49.76 bitrate=N/A speed=3.15x    frame= 8427 fps= 76 q=-0.0 size=N/A time=00:05:51.47 bitrate=N/A speed=3.15x    frame= 8466 fps= 76 q=-0.0 size=N/A time=00:05:53.10 bitrate=N/A speed=3.15x    frame= 8505 fps= 76 q=-0.0 size=N/A time=00:05:54.72 bitrate=N/A speed=3.15x    frame= 8533 fps= 76 q=-0.0 size=N/A time=00:05:55.89 bitrate=N/A speed=3.15x    frame= 8583 fps= 76 q=-0.0 size=N/A time=00:05:57.98 bitrate=N/A speed=3.15x    frame= 8620 fps= 76 q=-0.0 size=N/A time=00:05:59.52 bitrate=N/A speed=3.15x    frame= 8662 fps= 76 q=-0.0 size=N/A time=00:06:01.27 bitrate=N/A speed=3.15x    frame= 8700 fps= 76 q=-0.0 size=N/A time=00:06:02.86 bitrate=N/A speed=3.15x    frame= 8738 fps= 76 q=-0.0 size=N/A time=00:06:04.44 bitrate=N/A speed=3.15x    frame= 8770 fps= 76 q=-0.0 size=N/A time=00:06:05.78 bitrate=N/A speed=3.15x    frame= 8815 fps= 76 q=-0.0 size=N/A time=00:06:07.65 bitrate=N/A speed=3.15x    frame= 8842 fps= 75 q=-0.0 size=N/A time=00:06:08.78 bitrate=N/A speed=3.15x    frame= 8896 fps= 76 q=-0.0 size=N/A time=00:06:11.03 bitrate=N/A speed=3.15x    frame= 8930 fps= 76 q=-0.0 size=N/A time=00:06:12.45 bitrate=N/A speed=3.15x    frame= 8975 fps= 76 q=-0.0 size=N/A time=00:06:14.33 bitrate=N/A speed=3.15x    frame= 9011 fps= 76 q=-0.0 size=N/A time=00:06:15.83 bitrate=N/A speed=3.15x    frame= 9053 fps= 76 q=-0.0 size=N/A time=00:06:17.58 bitrate=N/A speed=3.15x    frame= 9092 fps= 76 q=-0.0 size=N/A time=00:06:19.21 bitrate=N/A speed=3.15x    frame= 9126 fps= 76 q=-0.0 size=N/A time=00:06:20.63 bitrate=N/A speed=3.15x    frame= 9168 fps= 76 q=-0.0 size=N/A time=00:06:22.38 bitrate=N/A speed=3.15x    frame= 9210 fps= 76 q=-0.0 size=N/A time=00:06:24.13 bitrate=N/A speed=3.15x    frame= 9249 fps= 76 q=-0.0 size=N/A time=00:06:25.76 bitrate=N/A speed=3.15x    frame= 9284 fps= 76 q=-0.0 size=N/A time=00:06:27.22 bitrate=N/A speed=3.15x    frame= 9327 fps= 76 q=-0.0 size=N/A time=00:06:29.01 bitrate=N/A speed=3.15x    frame= 9365 fps= 76 q=-0.0 size=N/A time=00:06:30.59 bitrate=N/A speed=3.15x    frame= 9404 fps= 76 q=-0.0 size=N/A time=00:06:32.22 bitrate=N/A speed=3.15x    frame= 9436 fps= 76 q=-0.0 size=N/A time=00:06:33.55 bitrate=N/A speed=3.15x    frame= 9483 fps= 76 q=-0.0 size=N/A time=00:06:35.52 bitrate=N/A speed=3.15x    frame= 9518 fps= 76 q=-0.0 size=N/A time=00:06:36.97 bitrate=N/A speed=3.15x    frame= 9561 fps= 76 q=-0.0 size=N/A time=00:06:38.77 bitrate=N/A speed=3.15x    frame= 9599 fps= 76 q=-0.0 size=N/A time=00:06:40.35 bitrate=N/A speed=3.15x    frame= 9639 fps= 76 q=-0.0 size=N/A time=00:06:42.02 bitrate=N/A speed=3.15x    frame= 9671 fps= 76 q=-0.0 size=N/A time=00:06:43.36 bitrate=N/A speed=3.15x    frame= 9718 fps= 76 q=-0.0 size=N/A time=00:06:45.32 bitrate=N/A speed=3.15x    frame= 9757 fps= 76 q=-0.0 size=N/A time=00:06:46.94 bitrate=N/A speed=3.15x    frame= 9796 fps= 76 q=-0.0 size=N/A time=00:06:48.57 bitrate=N/A speed=3.15x    frame= 9834 fps= 76 q=-0.0 size=N/A time=00:06:50.15 bitrate=N/A speed=3.15x    frame= 9873 fps= 76 q=-0.0 size=N/A time=00:06:51.78 bitrate=N/A speed=3.15x    frame= 9912 fps= 76 q=-0.0 size=N/A time=00:06:53.41 bitrate=N/A speed=3.15x    frame= 9952 fps= 76 q=-0.0 size=N/A time=00:06:55.08 bitrate=N/A speed=3.15x    frame= 9989 fps= 76 q=-0.0 size=N/A time=00:06:56.62 bitrate=N/A speed=3.15x    frame=10030 fps= 76 q=-0.0 size=N/A time=00:06:58.33 bitrate=N/A speed=3.15x    frame=10068 fps= 76 q=-0.0 size=N/A time=00:06:59.91 bitrate=N/A speed=3.15x    frame=10103 fps= 76 q=-0.0 size=N/A time=00:07:01.37 bitrate=N/A speed=3.15x    frame=10146 fps= 76 q=-0.0 size=N/A time=00:07:03.17 bitrate=N/A speed=3.15x    frame=10186 fps= 76 q=-0.0 size=N/A time=00:07:04.84 bitrate=N/A speed=3.15x    frame=10225 fps= 76 q=-0.0 size=N/A time=00:07:06.46 bitrate=N/A speed=3.15x    frame=10263 fps= 76 q=-0.0 size=N/A time=00:07:08.05 bitrate=N/A speed=3.15x    frame=10302 fps= 76 q=-0.0 size=N/A time=00:07:09.67 bitrate=N/A speed=3.15x    frame=10333 fps= 76 q=-0.0 size=N/A time=00:07:10.97 bitrate=N/A speed=3.15x    frame=10378 fps= 76 q=-0.0 size=N/A time=00:07:12.84 bitrate=N/A speed=3.15x    frame=10417 fps= 76 q=-0.0 size=N/A time=00:07:14.47 bitrate=N/A speed=3.15x    frame=10458 fps= 76 q=-0.0 size=N/A time=00:07:16.18 bitrate=N/A speed=3.15x    frame=10498 fps= 76 q=-0.0 size=N/A time=00:07:17.85 bitrate=N/A speed=3.15x    frame=10537 fps= 76 q=-0.0 size=N/A time=00:07:19.48 bitrate=N/A speed=3.15x    frame=10577 fps= 76 q=-0.0 size=N/A time=00:07:21.14 bitrate=N/A speed=3.15x    frame=10606 fps= 76 q=-0.0 size=N/A time=00:07:22.35 bitrate=N/A speed=3.15x    frame=10656 fps= 76 q=-0.0 size=N/A time=00:07:24.44 bitrate=N/A speed=3.15x    frame=10693 fps= 76 q=-0.0 size=N/A time=00:07:25.98 bitrate=N/A speed=3.15x    frame=10734 fps= 76 q=-0.0 size=N/A time=00:07:27.69 bitrate=N/A speed=3.15x    frame=10772 fps= 76 q=-0.0 size=N/A time=00:07:29.28 bitrate=N/A speed=3.15x    frame=10805 fps= 76 q=-0.0 size=N/A time=00:07:30.65 bitrate=N/A speed=3.15x    frame=10848 fps= 76 q=-0.0 size=N/A time=00:07:32.45 bitrate=N/A speed=3.15x    frame=10888 fps= 76 q=-0.0 size=N/A time=00:07:34.12 bitrate=N/A speed=3.15x    frame=10919 fps= 76 q=-0.0 size=N/A time=00:07:35.41 bitrate=N/A speed=3.15x    frame=10964 fps= 76 q=-0.0 size=N/A time=00:07:37.29 bitrate=N/A speed=3.15x    frame=11003 fps= 76 q=-0.0 size=N/A time=00:07:38.91 bitrate=N/A speed=3.15x    frame=11037 fps= 76 q=-0.0 size=N/A time=00:07:40.33 bitrate=N/A speed=3.15x    frame=11081 fps= 76 q=-0.0 size=N/A time=00:07:42.17 bitrate=N/A speed=3.15x    frame=11118 fps= 76 q=-0.0 size=N/A time=00:07:43.71 bitrate=N/A speed=3.15x    frame=11158 fps= 76 q=-0.0 size=N/A time=00:07:45.38 bitrate=N/A speed=3.15x    frame=11197 fps= 76 q=-0.0 size=N/A time=00:07:47.00 bitrate=N/A speed=3.15x    frame=11236 fps= 76 q=-0.0 size=N/A time=00:07:48.63 bitrate=N/A speed=3.15x    frame=11275 fps= 76 q=-0.0 size=N/A time=00:07:50.26 bitrate=N/A speed=3.15x    frame=11313 fps= 76 q=-0.0 size=N/A time=00:07:51.84 bitrate=N/A speed=3.15x    frame=11351 fps= 76 q=-0.0 size=N/A time=00:07:53.43 bitrate=N/A speed=3.15x    frame=11391 fps= 76 q=-0.0 size=N/A time=00:07:55.09 bitrate=N/A speed=3.15x    frame=11430 fps= 76 q=-0.0 size=N/A time=00:07:56.72 bitrate=N/A speed=3.15x    frame=11468 fps= 76 q=-0.0 size=N/A time=00:07:58.31 bitrate=N/A speed=3.15x    frame=11508 fps= 76 q=-0.0 size=N/A time=00:07:59.97 bitrate=N/A speed=3.15x    frame=11546 fps= 76 q=-0.0 size=N/A time=00:08:01.56 bitrate=N/A speed=3.15x    frame=11585 fps= 76 q=-0.0 size=N/A time=00:08:03.19 bitrate=N/A speed=3.15x    frame=11625 fps= 76 q=-0.0 size=N/A time=00:08:04.85 bitrate=N/A speed=3.15x    frame=11661 fps= 76 q=-0.0 size=N/A time=00:08:06.36 bitrate=N/A speed=3.15x    frame=11703 fps= 76 q=-0.0 size=N/A time=00:08:08.11 bitrate=N/A speed=3.15x    frame=11743 fps= 76 q=-0.0 size=N/A time=00:08:09.78 bitrate=N/A speed=3.15x    frame=11778 fps= 76 q=-0.0 size=N/A time=00:08:11.24 bitrate=N/A speed=3.15x    frame=11820 fps= 76 q=-0.0 size=N/A time=00:08:12.99 bitrate=N/A speed=3.15x    frame=11857 fps= 76 q=-0.0 size=N/A time=00:08:14.53 bitrate=N/A speed=3.15x    frame=11898 fps= 76 q=-0.0 size=N/A time=00:08:16.24 bitrate=N/A speed=3.15x    frame=11938 fps= 76 q=-0.0 size=N/A time=00:08:17.91 bitrate=N/A speed=3.15x    frame=11978 fps= 76 q=-0.0 size=N/A time=00:08:19.58 bitrate=N/A speed=3.15x    frame=12016 fps= 76 q=-0.0 size=N/A time=00:08:21.16 bitrate=N/A speed=3.15x    frame=12050 fps= 76 q=-0.0 size=N/A time=00:08:22.58 bitrate=N/A speed=3.15x    frame=12093 fps= 76 q=-0.0 size=N/A time=00:08:24.37 bitrate=N/A speed=3.15x    frame=12131 fps= 76 q=-0.0 size=N/A time=00:08:25.96 bitrate=N/A speed=3.15x    frame=12171 fps= 76 q=-0.0 size=N/A time=00:08:27.63 bitrate=N/A speed=3.15x    frame=12211 fps= 76 q=-0.0 size=N/A time=00:08:29.30 bitrate=N/A speed=3.15x    frame=12246 fps= 76 q=-0.0 size=N/A time=00:08:30.76 bitrate=N/A speed=3.15x    frame=12288 fps= 76 q=-0.0 size=N/A time=00:08:32.51 bitrate=N/A speed=3.15x    frame=12327 fps= 76 q=-0.0 size=N/A time=00:08:34.13 bitrate=N/A speed=3.15x    frame=12355 fps= 76 q=-0.0 size=N/A time=00:08:35.30 bitrate=N/A speed=3.15x    frame=12405 fps= 76 q=-0.0 size=N/A time=00:08:37.39 bitrate=N/A speed=3.15x    frame=12443 fps= 76 q=-0.0 size=N/A time=00:08:38.97 bitrate=N/A speed=3.15x    frame=12483 fps= 76 q=-0.0 size=N/A time=00:08:40.64 bitrate=N/A speed=3.15x    frame=12515 fps= 76 q=-0.0 size=N/A time=00:08:41.97 bitrate=N/A speed=3.15x    frame=12561 fps= 76 q=-0.0 size=N/A time=00:08:43.89 bitrate=N/A speed=3.15x    frame=12596 fps= 76 q=-0.0 size=N/A time=00:08:45.35 bitrate=N/A speed=3.15x    frame=12638 fps= 76 q=-0.0 size=N/A time=00:08:47.10 bitrate=N/A speed=3.15x    frame=12675 fps= 76 q=-0.0 size=N/A time=00:08:48.65 bitrate=N/A speed=3.15x    frame=12715 fps= 76 q=-0.0 size=N/A time=00:08:50.32 bitrate=N/A speed=3.15x    frame=12753 fps= 76 q=-0.0 size=N/A time=00:08:51.90 bitrate=N/A speed=3.15x    frame=12793 fps= 76 q=-0.0 size=N/A time=00:08:53.57 bitrate=N/A speed=3.15x    frame=12830 fps= 76 q=-0.0 size=N/A time=00:08:55.11 bitrate=N/A speed=3.15x    frame=12869 fps= 76 q=-0.0 size=N/A time=00:08:56.74 bitrate=N/A speed=3.15x    frame=12910 fps= 76 q=-0.0 size=N/A time=00:08:58.45 bitrate=N/A speed=3.15x    frame=12949 fps= 76 q=-0.0 size=N/A time=00:09:00.08 bitrate=N/A speed=3.15x    frame=12988 fps= 76 q=-0.0 size=N/A time=00:09:01.70 bitrate=N/A speed=3.15x    frame=13020 fps= 76 q=-0.0 size=N/A time=00:09:03.04 bitrate=N/A speed=3.15x    frame=13064 fps= 76 q=-0.0 size=N/A time=00:09:04.87 bitrate=N/A speed=3.15x    frame=13103 fps= 76 q=-0.0 size=N/A time=00:09:06.50 bitrate=N/A speed=3.15x    frame=13143 fps= 76 q=-0.0 size=N/A time=00:09:08.17 bitrate=N/A speed=3.15x    frame=13180 fps= 76 q=-0.0 size=N/A time=00:09:09.71 bitrate=N/A speed=3.15x    frame=13220 fps= 76 q=-0.0 size=N/A time=00:09:11.38 bitrate=N/A speed=3.15x    frame=13259 fps= 76 q=-0.0 size=N/A time=00:09:13.01 bitrate=N/A speed=3.15x    frame=13294 fps= 76 q=-0.0 size=N/A time=00:09:14.47 bitrate=N/A speed=3.15x    frame=13338 fps= 76 q=-0.0 size=N/A time=00:09:16.30 bitrate=N/A speed=3.15x    frame=13376 fps= 76 q=-0.0 size=N/A time=00:09:17.89 bitrate=N/A speed=3.15x    frame=13409 fps= 76 q=-0.0 size=N/A time=00:09:19.26 bitrate=N/A speed=3.15x    frame=13454 fps= 76 q=-0.0 size=N/A time=00:09:21.14 bitrate=N/A speed=3.15x    frame=13493 fps= 76 q=-0.0 size=N/A time=00:09:22.77 bitrate=N/A speed=3.15x    frame=13532 fps= 76 q=-0.0 size=N/A time=00:09:24.39 bitrate=N/A speed=3.15x    frame=13569 fps= 76 q=-0.0 size=N/A time=00:09:25.94 bitrate=N/A speed=3.15x    frame=13608 fps= 76 q=-0.0 size=N/A time=00:09:27.56 bitrate=N/A speed=3.15x    frame=13646 fps= 76 q=-0.0 size=N/A time=00:09:29.15 bitrate=N/A speed=3.15x    frame=13676 fps= 76 q=-0.0 size=N/A time=00:09:30.40 bitrate=N/A speed=3.15x    frame=13723 fps= 76 q=-0.0 size=N/A time=00:09:32.36 bitrate=N/A speed=3.15x    frame=13759 fps= 76 q=-0.0 size=N/A time=00:09:33.86 bitrate=N/A speed=3.15x    frame=13801 fps= 76 q=-0.0 size=N/A time=00:09:35.61 bitrate=N/A speed=3.15x    frame=13836 fps= 76 q=-0.0 size=N/A time=00:09:37.07 bitrate=N/A speed=3.15x    frame=13878 fps= 76 q=-0.0 size=N/A time=00:09:38.82 bitrate=N/A speed=3.15x    frame=13917 fps= 76 q=-0.0 size=N/A time=00:09:40.45 bitrate=N/A speed=3.15x    frame=13954 fps= 76 q=-0.0 size=N/A time=00:09:41.99 bitrate=N/A speed=3.15x    frame=13996 fps= 76 q=-0.0 size=N/A time=00:09:43.74 bitrate=N/A speed=3.15x    frame=14031 fps= 76 q=-0.0 size=N/A time=00:09:45.20 bitrate=N/A speed=3.15x    frame=14075 fps= 76 q=-0.0 size=N/A time=00:09:47.04 bitrate=N/A speed=3.15x    frame=14114 fps= 76 q=-0.0 size=N/A time=00:09:48.67 bitrate=N/A speed=3.15x    frame=14153 fps= 76 q=-0.0 size=N/A time=00:09:50.29 bitrate=N/A speed=3.15x    frame=14185 fps= 76 q=-0.0 size=N/A time=00:09:51.63 bitrate=N/A speed=3.15x    frame=14231 fps= 76 q=-0.0 size=N/A time=00:09:53.55 bitrate=N/A speed=3.15x    frame=14269 fps= 76 q=-0.0 size=N/A time=00:09:55.13 bitrate=N/A speed=3.15x    frame=14309 fps= 76 q=-0.0 size=N/A time=00:09:56.80 bitrate=N/A speed=3.15x    frame=14348 fps= 76 q=-0.0 size=N/A time=00:09:58.43 bitrate=N/A speed=3.15x    frame=14386 fps= 76 q=-0.0 size=N/A time=00:10:00.01 bitrate=N/A speed=3.15x    frame=14426 fps= 76 q=-0.0 size=N/A time=00:10:01.68 bitrate=N/A speed=3.15x    frame=14465 fps= 76 q=-0.0 size=N/A time=00:10:03.31 bitrate=N/A speed=3.15x    frame=14500 fps= 76 q=-0.0 size=N/A time=00:10:04.77 bitrate=N/A speed=3.15x    frame=14543 fps= 76 q=-0.0 size=N/A time=00:10:06.56 bitrate=N/A speed=3.15x    frame=14582 fps= 76 q=-0.0 size=N/A time=00:10:08.19 bitrate=N/A speed=3.15x    frame=14621 fps= 76 q=-0.0 size=N/A time=00:10:09.81 bitrate=N/A speed=3.15x    frame=14661 fps= 76 q=-0.0 size=N/A time=00:10:11.48 bitrate=N/A speed=3.15x    frame=14700 fps= 76 q=-0.0 size=N/A time=00:10:13.11 bitrate=N/A speed=3.15x    frame=14739 fps= 76 q=-0.0 size=N/A time=00:10:14.73 bitrate=N/A speed=3.15x    frame=14778 fps= 76 q=-0.0 size=N/A time=00:10:16.36 bitrate=N/A speed=3.15x    frame=14817 fps= 76 q=-0.0 size=N/A time=00:10:17.99 bitrate=N/A speed=3.15x    frame=14850 fps= 76 q=-0.0 size=N/A time=00:10:19.36 bitrate=N/A speed=3.15x    frame=14883 fps= 75 q=-0.0 size=N/A time=00:10:20.74 bitrate=N/A speed=3.15x    frame=14927 fps= 76 q=-0.0 size=N/A time=00:10:22.58 bitrate=N/A speed=3.15x    frame=14972 fps= 76 q=-0.0 size=N/A time=00:10:24.45 bitrate=N/A speed=3.15x    frame=15008 fps= 76 q=-0.0 size=N/A time=00:10:25.95 bitrate=N/A speed=3.15x    frame=15046 fps= 76 q=-0.0 size=N/A time=00:10:27.54 bitrate=N/A speed=3.15x    frame=15088 fps= 76 q=-0.0 size=N/A time=00:10:29.29 bitrate=N/A speed=3.15x    frame=15127 fps= 76 q=-0.0 size=N/A time=00:10:30.92 bitrate=N/A speed=3.15x    frame=15165 fps= 76 q=-0.0 size=N/A time=00:10:32.50 bitrate=N/A speed=3.15x    frame=15206 fps= 76 q=-0.0 size=N/A time=00:10:34.21 bitrate=N/A speed=3.15x    frame=15239 fps= 76 q=-0.0 size=N/A time=00:10:35.59 bitrate=N/A speed=3.15x    frame=15284 fps= 76 q=-0.0 size=N/A time=00:10:37.47 bitrate=N/A speed=3.15x    frame=15323 fps= 76 q=-0.0 size=N/A time=00:10:39.09 bitrate=N/A speed=3.15x    frame=15359 fps= 76 q=-0.0 size=N/A time=00:10:40.59 bitrate=N/A speed=3.15x    frame=15402 fps= 76 q=-0.0 size=N/A time=00:10:42.39 bitrate=N/A speed=3.15x    frame=15441 fps= 76 q=-0.0 size=N/A time=00:10:44.01 bitrate=N/A speed=3.15x    frame=15479 fps= 76 q=-0.0 size=N/A time=00:10:45.60 bitrate=N/A speed=3.15x    frame=15519 fps= 76 q=-0.0 size=N/A time=00:10:47.27 bitrate=N/A speed=3.15x    frame=15558 fps= 76 q=-0.0 size=N/A time=00:10:48.89 bitrate=N/A speed=3.15x    frame=15597 fps= 76 q=-0.0 size=N/A time=00:10:50.52 bitrate=N/A speed=3.15x    frame=15636 fps= 76 q=-0.0 size=N/A time=00:10:52.15 bitrate=N/A speed=3.15x    frame=15675 fps= 76 q=-0.0 size=N/A time=00:10:53.77 bitrate=N/A speed=3.15x    frame=15714 fps= 76 q=-0.0 size=N/A time=00:10:55.40 bitrate=N/A speed=3.15x    frame=15754 fps= 76 q=-0.0 size=N/A time=00:10:57.07 bitrate=N/A speed=3.15x    frame=15783 fps= 76 q=-0.0 size=N/A time=00:10:58.28 bitrate=N/A speed=3.15x    frame=15827 fps= 76 q=-0.0 size=N/A time=00:11:00.11 bitrate=N/A speed=3.15x    frame=15870 fps= 76 q=-0.0 size=N/A time=00:11:01.91 bitrate=N/A speed=3.15x    frame=15908 fps= 76 q=-0.0 size=N/A time=00:11:03.49 bitrate=N/A speed=3.15x    frame=15938 fps= 76 q=-0.0 size=N/A time=00:11:04.74 bitrate=N/A speed=3.15x    frame=15987 fps= 76 q=-0.0 size=N/A time=00:11:06.79 bitrate=N/A speed=3.15x    frame=16025 fps= 76 q=-0.0 size=N/A time=00:11:08.37 bitrate=N/A speed=3.15x    frame=16065 fps= 76 q=-0.0 size=N/A time=00:11:10.04 bitrate=N/A speed=3.15x    frame=16103 fps= 76 q=-0.0 size=N/A time=00:11:11.62 bitrate=N/A speed=3.15x    frame=16140 fps= 76 q=-0.0 size=N/A time=00:11:13.17 bitrate=N/A speed=3.15x    frame=16181 fps= 76 q=-0.0 size=N/A time=00:11:14.88 bitrate=N/A speed=3.15x    frame=16221 fps= 76 q=-0.0 size=N/A time=00:11:16.55 bitrate=N/A speed=3.15x    frame=16248 fps= 76 q=-0.0 size=N/A time=00:11:17.67 bitrate=N/A speed=3.15x    frame=16299 fps= 76 q=-0.0 size=N/A time=00:11:19.80 bitrate=N/A speed=3.15x    frame=16337 fps= 76 q=-0.0 size=N/A time=00:11:21.38 bitrate=N/A speed=3.15x    frame=16377 fps= 76 q=-0.0 size=N/A time=00:11:23.05 bitrate=N/A speed=3.15x    frame=16415 fps= 76 q=-0.0 size=N/A time=00:11:24.64 bitrate=N/A speed=3.15x    frame=16455 fps= 76 q=-0.0 size=N/A time=00:11:26.31 bitrate=N/A speed=3.15x    frame=16493 fps= 76 q=-0.0 size=N/A time=00:11:27.89 bitrate=N/A speed=3.15x    frame=16526 fps= 76 q=-0.0 size=N/A time=00:11:29.27 bitrate=N/A speed=3.15x    frame=16571 fps= 76 q=-0.0 size=N/A time=00:11:31.14 bitrate=N/A speed=3.15x    frame=16610 fps= 76 q=-0.0 size=N/A time=00:11:32.77 bitrate=N/A speed=3.15x    frame=16643 fps= 76 q=-0.0 size=N/A time=00:11:34.15 bitrate=N/A speed=3.15x    frame=16688 fps= 76 q=-0.0 size=N/A time=00:11:36.02 bitrate=N/A speed=3.15x    frame=16724 fps= 76 q=-0.0 size=N/A time=00:11:37.53 bitrate=N/A speed=3.15x    frame=16751 fps= 75 q=-0.0 size=N/A time=00:11:38.65 bitrate=N/A speed=3.15x    frame=16805 fps= 76 q=-0.0 size=N/A time=00:11:40.90 bitrate=N/A speed=3.15x    frame=16844 fps= 76 q=-0.0 size=N/A time=00:11:42.53 bitrate=N/A speed=3.15x    frame=16883 fps= 76 q=-0.0 size=N/A time=00:11:44.16 bitrate=N/A speed=3.15x    frame=16921 fps= 76 q=-0.0 size=N/A time=00:11:45.74 bitrate=N/A speed=3.15x    frame=16960 fps= 76 q=-0.0 size=N/A time=00:11:47.37 bitrate=N/A speed=3.15x    frame=16995 fps= 76 q=-0.0 size=N/A time=00:11:48.83 bitrate=N/A speed=3.15x    frame=17030 fps= 76 q=-0.0 size=N/A time=00:11:50.29 bitrate=N/A speed=3.15x    frame=17077 fps= 76 q=-0.0 size=N/A time=00:11:52.25 bitrate=N/A speed=3.15x    frame=17112 fps= 76 q=-0.0 size=N/A time=00:11:53.71 bitrate=N/A speed=3.15x    frame=17154 fps= 76 q=-0.0 size=N/A time=00:11:55.46 bitrate=N/A speed=3.15x    frame=17192 fps= 76 q=-0.0 size=N/A time=00:11:57.04 bitrate=N/A speed=3.15x    frame=17232 fps= 76 q=-0.0 size=N/A time=00:11:58.71 bitrate=N/A speed=3.15x    frame=17273 fps= 76 q=-0.0 size=N/A time=00:12:00.42 bitrate=N/A speed=3.15x    frame=17312 fps= 76 q=-0.0 size=N/A time=00:12:02.05 bitrate=N/A speed=3.15x    frame=17347 fps= 76 q=-0.0 size=N/A time=00:12:03.51 bitrate=N/A speed=3.15x    frame=17390 fps= 76 q=-0.0 size=N/A time=00:12:05.30 bitrate=N/A speed=3.15x    frame=17426 fps= 76 q=-0.0 size=N/A time=00:12:06.80 bitrate=N/A speed=3.15x    frame=17468 fps= 76 q=-0.0 size=N/A time=00:12:08.56 bitrate=N/A speed=3.15x    frame=17508 fps= 76 q=-0.0 size=N/A time=00:12:10.22 bitrate=N/A speed=3.15x    frame=17541 fps= 76 q=-0.0 size=N/A time=00:12:11.60 bitrate=N/A speed=3.15x    frame=17585 fps= 76 q=-0.0 size=N/A time=00:12:13.44 bitrate=N/A speed=3.15x    frame=17624 fps= 76 q=-0.0 size=N/A time=00:12:15.06 bitrate=N/A speed=3.15x    frame=17664 fps= 76 q=-0.0 size=N/A time=00:12:16.73 bitrate=N/A speed=3.15x    frame=17702 fps= 76 q=-0.0 size=N/A time=00:12:18.32 bitrate=N/A speed=3.15x    frame=17742 fps= 76 q=-0.0 size=N/A time=00:12:19.98 bitrate=N/A speed=3.15x    frame=17779 fps= 76 q=-0.0 size=N/A time=00:12:21.53 bitrate=N/A speed=3.15x    frame=17813 fps= 76 q=-0.0 size=N/A time=00:12:22.95 bitrate=N/A speed=3.15x    frame=17856 fps= 76 q=-0.0 size=N/A time=00:12:24.74 bitrate=N/A speed=3.15x    frame=17889 fps= 76 q=-0.0 size=N/A time=00:12:26.12 bitrate=N/A speed=3.15x    frame=17934 fps= 76 q=-0.0 size=N/A time=00:12:27.99 bitrate=N/A speed=3.15x    frame=17973 fps= 76 q=-0.0 size=N/A time=00:12:29.62 bitrate=N/A speed=3.15x    frame=18012 fps= 76 q=-0.0 size=N/A time=00:12:31.25 bitrate=N/A speed=3.15x    frame=18051 fps= 76 q=-0.0 size=N/A time=00:12:32.87 bitrate=N/A speed=3.15x    frame=18087 fps= 76 q=-0.0 size=N/A time=00:12:34.37 bitrate=N/A speed=3.15x    frame=18132 fps= 76 q=-0.0 size=N/A time=00:12:36.25 bitrate=N/A speed=3.15x    frame=18171 fps= 76 q=-0.0 size=N/A time=00:12:37.88 bitrate=N/A speed=3.15x    frame=18210 fps= 76 q=-0.0 size=N/A time=00:12:39.50 bitrate=N/A speed=3.15x    frame=18249 fps= 76 q=-0.0 size=N/A time=00:12:41.13 bitrate=N/A speed=3.15x    frame=18288 fps= 76 q=-0.0 size=N/A time=00:12:42.76 bitrate=N/A speed=3.15x    frame=18326 fps= 76 q=-0.0 size=N/A time=00:12:44.34 bitrate=N/A speed=3.15x    frame=18366 fps= 76 q=-0.0 size=N/A time=00:12:46.01 bitrate=N/A speed=3.15x    frame=18403 fps= 76 q=-0.0 size=N/A time=00:12:47.55 bitrate=N/A speed=3.15x    frame=18439 fps= 76 q=-0.0 size=N/A time=00:12:49.05 bitrate=N/A speed=3.15x    frame=18482 fps= 76 q=-0.0 size=N/A time=00:12:50.85 bitrate=N/A speed=3.15x    frame=18522 fps= 76 q=-0.0 size=N/A time=00:12:52.52 bitrate=N/A speed=3.15x    frame=18561 fps= 76 q=-0.0 size=N/A time=00:12:54.14 bitrate=N/A speed=3.15x    frame=18600 fps= 76 q=-0.0 size=N/A time=00:12:55.77 bitrate=N/A speed=3.15x    frame=18638 fps= 76 q=-0.0 size=N/A time=00:12:57.35 bitrate=N/A speed=3.15x    frame=18677 fps= 76 q=-0.0 size=N/A time=00:12:58.98 bitrate=N/A speed=3.15x    frame=18708 fps= 76 q=-0.0 size=N/A time=00:13:00.27 bitrate=N/A speed=3.15x    frame=18755 fps= 76 q=-0.0 size=N/A time=00:13:02.23 bitrate=N/A speed=3.15x    frame=18792 fps= 76 q=-0.0 size=N/A time=00:13:03.78 bitrate=N/A speed=3.15x    frame=18830 fps= 76 q=-0.0 size=N/A time=00:13:05.36 bitrate=N/A speed=3.15x    frame=18869 fps= 76 q=-0.0 size=N/A time=00:13:06.99 bitrate=N/A speed=3.15x    frame=18904 fps= 76 q=-0.0 size=N/A time=00:13:08.45 bitrate=N/A speed=3.15x    frame=18946 fps= 76 q=-0.0 size=N/A time=00:13:10.20 bitrate=N/A speed=3.15x    frame=18985 fps= 76 q=-0.0 size=N/A time=00:13:11.83 bitrate=N/A speed=3.15x    frame=19024 fps= 76 q=-0.0 size=N/A time=00:13:13.45 bitrate=N/A speed=3.15x    frame=19062 fps= 76 q=-0.0 size=N/A time=00:13:15.04 bitrate=N/A speed=3.15x    frame=19101 fps= 76 q=-0.0 size=N/A time=00:13:16.67 bitrate=N/A speed=3.15x    frame=19141 fps= 76 q=-0.0 size=N/A time=00:13:18.33 bitrate=N/A speed=3.15x    frame=19181 fps= 76 q=-0.0 size=N/A time=00:13:20.00 bitrate=N/A speed=3.15x    frame=19217 fps= 76 q=-0.0 size=N/A time=00:13:21.50 bitrate=N/A speed=3.15x    frame=19259 fps= 76 q=-0.0 size=N/A time=00:13:23.26 bitrate=N/A speed=3.15x    frame=19297 fps= 76 q=-0.0 size=N/A time=00:13:24.84 bitrate=N/A speed=3.15x    frame=19337 fps= 76 q=-0.0 size=N/A time=00:13:26.51 bitrate=N/A speed=3.15x    frame=19376 fps= 76 q=-0.0 size=N/A time=00:13:28.14 bitrate=N/A speed=3.15x    frame=19410 fps= 76 q=-0.0 size=N/A time=00:13:29.55 bitrate=N/A speed=3.15x    frame=19453 fps= 76 q=-0.0 size=N/A time=00:13:31.35 bitrate=N/A speed=3.15x    frame=19493 fps= 76 q=-0.0 size=N/A time=00:13:33.02 bitrate=N/A speed=3.15x    frame=19530 fps= 76 q=-0.0 size=N/A time=00:13:34.56 bitrate=N/A speed=3.15x    frame=19567 fps= 76 q=-0.0 size=N/A time=00:13:36.10 bitrate=N/A speed=3.15x    frame=19608 fps= 76 q=-0.0 size=N/A time=00:13:37.81 bitrate=N/A speed=3.15x    frame=19648 fps= 76 q=-0.0 size=N/A time=00:13:39.48 bitrate=N/A speed=3.15x    frame=19686 fps= 76 q=-0.0 size=N/A time=00:13:41.07 bitrate=N/A speed=3.15x    frame=19724 fps= 76 q=-0.0 size=N/A time=00:13:42.65 bitrate=N/A speed=3.15x    frame=19761 fps= 76 q=-0.0 size=N/A time=00:13:44.19 bitrate=N/A speed=3.15x    frame=19801 fps= 76 q=-0.0 size=N/A time=00:13:45.86 bitrate=N/A speed=3.15x    frame=19842 fps= 76 q=-0.0 size=N/A time=00:13:47.57 bitrate=N/A speed=3.15x    frame=19882 fps= 76 q=-0.0 size=N/A time=00:13:49.24 bitrate=N/A speed=3.15x    frame=19921 fps= 76 q=-0.0 size=N/A time=00:13:50.87 bitrate=N/A speed=3.15x    frame=19961 fps= 76 q=-0.0 size=N/A time=00:13:52.54 bitrate=N/A speed=3.15x    frame=20000 fps= 76 q=-0.0 size=N/A time=00:13:54.16 bitrate=N/A speed=3.15x    frame=20040 fps= 76 q=-0.0 size=N/A time=00:13:55.83 bitrate=N/A speed=3.15x    frame=20078 fps= 76 q=-0.0 size=N/A time=00:13:57.41 bitrate=N/A speed=3.15x    frame=20118 fps= 76 q=-0.0 size=N/A time=00:13:59.08 bitrate=N/A speed=3.15x    frame=20157 fps= 76 q=-0.0 size=N/A time=00:14:00.71 bitrate=N/A speed=3.15x    frame=20194 fps= 76 q=-0.0 size=N/A time=00:14:02.25 bitrate=N/A speed=3.15x    frame=20230 fps= 76 q=-0.0 size=N/A time=00:14:03.75 bitrate=N/A speed=3.15x    frame=20277 fps= 76 q=-0.0 size=N/A time=00:14:05.71 bitrate=N/A speed=3.15x    frame=20315 fps= 76 q=-0.0 size=N/A time=00:14:07.30 bitrate=N/A speed=3.15x    frame=20355 fps= 76 q=-0.0 size=N/A time=00:14:08.97 bitrate=N/A speed=3.15x    frame=20393 fps= 76 q=-0.0 size=N/A time=00:14:10.55 bitrate=N/A speed=3.15x    frame=20435 fps= 76 q=-0.0 size=N/A time=00:14:12.30 bitrate=N/A speed=3.15x    frame=20469 fps= 76 q=-0.0 size=N/A time=00:14:13.72 bitrate=N/A speed=3.15x    frame=20511 fps= 76 q=-0.0 size=N/A time=00:14:15.47 bitrate=N/A speed=3.15x    frame=20549 fps= 76 q=-0.0 size=N/A time=00:14:17.06 bitrate=N/A speed=3.15x    frame=20588 fps= 76 q=-0.0 size=N/A time=00:14:18.69 bitrate=N/A speed=3.15x    frame=20627 fps= 76 q=-0.0 size=N/A time=00:14:20.31 bitrate=N/A speed=3.15x    frame=20659 fps= 76 q=-0.0 size=N/A time=00:14:21.65 bitrate=N/A speed=3.15x    frame=20705 fps= 76 q=-0.0 size=N/A time=00:14:23.57 bitrate=N/A speed=3.15x    frame=20737 fps= 76 q=-0.0 size=N/A time=00:14:24.90 bitrate=N/A speed=3.15x    frame=20784 fps= 76 q=-0.0 size=N/A time=00:14:26.86 bitrate=N/A speed=3.15x    frame=20822 fps= 76 q=-0.0 size=N/A time=00:14:28.45 bitrate=N/A speed=3.15x    frame=20862 fps= 76 q=-0.0 size=N/A time=00:14:30.11 bitrate=N/A speed=3.15x    frame=20901 fps= 76 q=-0.0 size=N/A time=00:14:31.74 bitrate=N/A speed=3.15x    frame=20941 fps= 76 q=-0.0 size=N/A time=00:14:33.41 bitrate=N/A speed=3.15x    frame=20980 fps= 76 q=-0.0 size=N/A time=00:14:35.04 bitrate=N/A speed=3.15x    frame=21017 fps= 76 q=-0.0 size=N/A time=00:14:36.58 bitrate=N/A speed=3.15x    frame=21058 fps= 76 q=-0.0 size=N/A time=00:14:38.29 bitrate=N/A speed=3.15x    frame=21095 fps= 76 q=-0.0 size=N/A time=00:14:39.83 bitrate=N/A speed=3.15x    frame=21135 fps= 76 q=-0.0 size=N/A time=00:14:41.50 bitrate=N/A speed=3.15x    frame=21174 fps= 76 q=-0.0 size=N/A time=00:14:43.13 bitrate=N/A speed=3.15x    frame=21213 fps= 76 q=-0.0 size=N/A time=00:14:44.75 bitrate=N/A speed=3.15x    frame=21252 fps= 76 q=-0.0 size=N/A time=00:14:46.38 bitrate=N/A speed=3.15x    frame=21292 fps= 76 q=-0.0 size=N/A time=00:14:48.05 bitrate=N/A speed=3.15x    frame=21329 fps= 76 q=-0.0 size=N/A time=00:14:49.59 bitrate=N/A speed=3.15x    frame=21363 fps= 76 q=-0.0 size=N/A time=00:14:51.01 bitrate=N/A speed=3.15x    frame=21406 fps= 76 q=-0.0 size=N/A time=00:14:52.80 bitrate=N/A speed=3.15x    frame=21444 fps= 76 q=-0.0 size=N/A time=00:14:54.39 bitrate=N/A speed=3.15x    frame=21485 fps= 76 q=-0.0 size=N/A time=00:14:56.10 bitrate=N/A speed=3.15x    frame=21524 fps= 76 q=-0.0 size=N/A time=00:14:57.73 bitrate=N/A speed=3.15x    frame=21555 fps= 76 q=-0.0 size=N/A time=00:14:59.02 bitrate=N/A speed=3.15x    frame=21602 fps= 76 q=-0.0 size=N/A time=00:15:00.98 bitrate=N/A speed=3.15x    frame=21642 fps= 76 q=-0.0 size=N/A time=00:15:02.65 bitrate=N/A speed=3.15x    frame=21682 fps= 76 q=-0.0 size=N/A time=00:15:04.32 bitrate=N/A speed=3.15x    frame=21714 fps= 76 q=-0.0 size=N/A time=00:15:05.65 bitrate=N/A speed=3.15x    frame=21759 fps= 76 q=-0.0 size=N/A time=00:15:07.53 bitrate=N/A speed=3.15x    frame=21795 fps= 76 q=-0.0 size=N/A time=00:15:09.03 bitrate=N/A speed=3.15x    frame=21838 fps= 76 q=-0.0 size=N/A time=00:15:10.82 bitrate=N/A speed=3.15x    frame=21878 fps= 76 q=-0.0 size=N/A time=00:15:12.49 bitrate=N/A speed=3.15x    frame=21917 fps= 76 q=-0.0 size=N/A time=00:15:14.12 bitrate=N/A speed=3.15x    frame=21957 fps= 76 q=-0.0 size=N/A time=00:15:15.78 bitrate=N/A speed=3.15x    frame=21996 fps= 76 q=-0.0 size=N/A time=00:15:17.41 bitrate=N/A speed=3.15x    frame=22035 fps= 76 q=-0.0 size=N/A time=00:15:19.04 bitrate=N/A speed=3.15x    frame=22074 fps= 76 q=-0.0 size=N/A time=00:15:20.66 bitrate=N/A speed=3.15x    frame=22113 fps= 76 q=-0.0 size=N/A time=00:15:22.29 bitrate=N/A speed=3.15x    frame=22152 fps= 76 q=-0.0 size=N/A time=00:15:23.92 bitrate=N/A speed=3.15x    frame=22192 fps= 76 q=-0.0 size=N/A time=00:15:25.59 bitrate=N/A speed=3.15x    frame=22226 fps= 76 q=-0.0 size=N/A time=00:15:27.00 bitrate=N/A speed=3.15x    frame=22272 fps= 76 q=-0.0 size=N/A time=00:15:28.92 bitrate=N/A speed=3.15x    frame=22310 fps= 76 q=-0.0 size=N/A time=00:15:30.51 bitrate=N/A speed=3.15x    frame=22351 fps= 76 q=-0.0 size=N/A time=00:15:32.22 bitrate=N/A speed=3.15x    frame=22389 fps= 76 q=-0.0 size=N/A time=00:15:33.80 bitrate=N/A speed=3.15x    frame=22427 fps= 76 q=-0.0 size=N/A time=00:15:35.39 bitrate=N/A speed=3.15x    frame=22466 fps= 76 q=-0.0 size=N/A time=00:15:37.01 bitrate=N/A speed=3.15x    frame=22505 fps= 76 q=-0.0 size=N/A time=00:15:38.64 bitrate=N/A speed=3.15x    frame=22539 fps= 76 q=-0.0 size=N/A time=00:15:40.06 bitrate=N/A speed=3.15x    frame=22573 fps= 76 q=-0.0 size=N/A time=00:15:41.48 bitrate=N/A speed=3.15x    frame=22624 fps= 76 q=-0.0 size=N/A time=00:15:43.60 bitrate=N/A speed=3.15x    frame=22664 fps= 76 q=-0.0 size=N/A time=00:15:45.27 bitrate=N/A speed=3.15x    frame=22696 fps= 76 q=-0.0 size=N/A time=00:15:46.61 bitrate=N/A speed=3.15x    frame=22743 fps= 76 q=-0.0 size=N/A time=00:15:48.57 bitrate=N/A speed=3.15x    frame=22777 fps= 76 q=-0.0 size=N/A time=00:15:49.99 bitrate=N/A speed=3.15x    frame=22821 fps= 76 q=-0.0 size=N/A time=00:15:51.82 bitrate=N/A speed=3.15x    frame=22858 fps= 76 q=-0.0 size=N/A time=00:15:53.36 bitrate=N/A speed=3.15x    frame=22899 fps= 76 q=-0.0 size=N/A time=00:15:55.07 bitrate=N/A speed=3.15x    frame=22939 fps= 76 q=-0.0 size=N/A time=00:15:56.74 bitrate=N/A speed=3.15x    frame=22966 fps= 76 q=-0.0 size=N/A time=00:15:57.87 bitrate=N/A speed=3.15x    frame=23009 fps= 76 q=-0.0 size=N/A time=00:15:59.66 bitrate=N/A speed=3.15x    frame=23055 fps= 76 q=-0.0 size=N/A time=00:16:01.58 bitrate=N/A speed=3.15x    frame=23089 fps= 76 q=-0.0 size=N/A time=00:16:03.00 bitrate=N/A speed=3.15x    frame=23134 fps= 76 q=-0.0 size=N/A time=00:16:04.88 bitrate=N/A speed=3.15x    frame=23170 fps= 76 q=-0.0 size=N/A time=00:16:06.38 bitrate=N/A speed=3.15x    frame=23211 fps= 76 q=-0.0 size=N/A time=00:16:08.09 bitrate=N/A speed=3.15x    frame=23249 fps= 76 q=-0.0 size=N/A time=00:16:09.67 bitrate=N/A speed=3.15x    frame=23289 fps= 76 q=-0.0 size=N/A time=00:16:11.34 bitrate=N/A speed=3.15x    frame=23328 fps= 76 q=-0.0 size=N/A time=00:16:12.97 bitrate=N/A speed=3.15x    frame=23367 fps= 76 q=-0.0 size=N/A time=00:16:14.59 bitrate=N/A speed=3.15x    frame=23405 fps= 76 q=-0.0 size=N/A time=00:16:16.18 bitrate=N/A speed=3.15x    frame=23445 fps= 76 q=-0.0 size=N/A time=00:16:17.85 bitrate=N/A speed=3.15x    frame=23484 fps= 76 q=-0.0 size=N/A time=00:16:19.47 bitrate=N/A speed=3.15x    frame=23522 fps= 76 q=-0.0 size=N/A time=00:16:21.06 bitrate=N/A speed=3.15x    frame=23555 fps= 76 q=-0.0 size=N/A time=00:16:22.43 bitrate=N/A speed=3.15x    frame=23600 fps= 76 q=-0.0 size=N/A time=00:16:24.31 bitrate=N/A speed=3.15x    frame=23638 fps= 76 q=-0.0 size=N/A time=00:16:25.90 bitrate=N/A speed=3.15x    frame=23678 fps= 76 q=-0.0 size=N/A time=00:16:27.56 bitrate=N/A speed=3.15x    frame=23714 fps= 76 q=-0.0 size=N/A time=00:16:29.07 bitrate=N/A speed=3.15x    frame=23756 fps= 76 q=-0.0 size=N/A time=00:16:30.82 bitrate=N/A speed=3.15x    frame=23796 fps= 76 q=-0.0 size=N/A time=00:16:32.49 bitrate=N/A speed=3.15x    frame=23833 fps= 76 q=-0.0 size=N/A time=00:16:34.03 bitrate=N/A speed=3.15x    frame=23873 fps= 76 q=-0.0 size=N/A time=00:16:35.70 bitrate=N/A speed=3.15x    frame=23911 fps= 76 q=-0.0 size=N/A time=00:16:37.28 bitrate=N/A speed=3.15x    frame=23951 fps= 76 q=-0.0 size=N/A time=00:16:38.95 bitrate=N/A speed=3.15x    frame=23989 fps= 76 q=-0.0 size=N/A time=00:16:40.54 bitrate=N/A speed=3.15x    frame=24028 fps= 76 q=-0.0 size=N/A time=00:16:42.16 bitrate=N/A speed=3.15x    frame=24059 fps= 76 q=-0.0 size=N/A time=00:16:43.46 bitrate=N/A speed=3.15x    frame=24095 fps= 76 q=-0.0 size=N/A time=00:16:44.96 bitrate=N/A speed=3.15x    frame=24145 fps= 76 q=-0.0 size=N/A time=00:16:47.04 bitrate=N/A speed=3.15x    frame=24182 fps= 76 q=-0.0 size=N/A time=00:16:48.59 bitrate=N/A speed=3.15x    frame=24218 fps= 76 q=-0.0 size=N/A time=00:16:50.09 bitrate=N/A speed=3.15x    frame=24263 fps= 76 q=-0.0 size=N/A time=00:16:51.96 bitrate=N/A speed=3.15x    frame=24300 fps= 76 q=-0.0 size=N/A time=00:16:53.51 bitrate=N/A speed=3.15x    frame=24335 fps= 76 q=-0.0 size=N/A time=00:16:54.97 bitrate=N/A speed=3.15x    frame=24376 fps= 76 q=-0.0 size=N/A time=00:16:56.68 bitrate=N/A speed=3.15x    frame=24419 fps= 76 q=-0.0 size=N/A time=00:16:58.47 bitrate=N/A speed=3.15x    frame=24453 fps= 76 q=-0.0 size=N/A time=00:16:59.89 bitrate=N/A speed=3.15x    frame=24495 fps= 76 q=-0.0 size=N/A time=00:17:01.64 bitrate=N/A speed=3.15x    frame=24534 fps= 76 q=-0.0 size=N/A time=00:17:03.27 bitrate=N/A speed=3.15x    frame=24568 fps= 76 q=-0.0 size=N/A time=00:17:04.69 bitrate=N/A speed=3.15x    frame=24612 fps= 76 q=-0.0 size=N/A time=00:17:06.52 bitrate=N/A speed=3.15x    frame=24652 fps= 76 q=-0.0 size=N/A time=00:17:08.19 bitrate=N/A speed=3.15x    frame=24689 fps= 76 q=-0.0 size=N/A time=00:17:09.73 bitrate=N/A speed=3.15x    frame=24723 fps= 76 q=-0.0 size=N/A time=00:17:11.15 bitrate=N/A speed=3.15x    frame=24767 fps= 76 q=-0.0 size=N/A time=00:17:12.99 bitrate=N/A speed=3.15x    frame=24805 fps= 76 q=-0.0 size=N/A time=00:17:14.57 bitrate=N/A speed=3.15x    frame=24845 fps= 76 q=-0.0 size=N/A time=00:17:16.24 bitrate=N/A speed=3.15x    frame=24884 fps= 76 q=-0.0 size=N/A time=00:17:17.87 bitrate=N/A speed=3.15x    frame=24925 fps= 76 q=-0.0 size=N/A time=00:17:19.58 bitrate=N/A speed=3.15x    frame=24963 fps= 76 q=-0.0 size=N/A time=00:17:21.16 bitrate=N/A speed=3.15x    frame=25002 fps= 76 q=-0.0 size=N/A time=00:17:22.79 bitrate=N/A speed=3.15x    frame=25042 fps= 76 q=-0.0 size=N/A time=00:17:24.46 bitrate=N/A speed=3.15x    frame=25081 fps= 76 q=-0.0 size=N/A time=00:17:26.08 bitrate=N/A speed=3.15x    frame=25120 fps= 76 q=-0.0 size=N/A time=00:17:27.71 bitrate=N/A speed=3.15x    frame=25158 fps= 76 q=-0.0 size=N/A time=00:17:29.29 bitrate=N/A speed=3.15x    frame=25197 fps= 76 q=-0.0 size=N/A time=00:17:30.92 bitrate=N/A speed=3.15x    frame=25235 fps= 76 q=-0.0 size=N/A time=00:17:32.50 bitrate=N/A speed=3.15x    frame=25275 fps= 76 q=-0.0 size=N/A time=00:17:34.17 bitrate=N/A speed=3.15x    frame=25313 fps= 76 q=-0.0 size=N/A time=00:17:35.76 bitrate=N/A speed=3.15x    frame=25353 fps= 76 q=-0.0 size=N/A time=00:17:37.43 bitrate=N/A speed=3.15x    frame=25391 fps= 76 q=-0.0 size=N/A time=00:17:39.01 bitrate=N/A speed=3.15x    frame=25428 fps= 76 q=-0.0 size=N/A time=00:17:40.55 bitrate=N/A speed=3.15x    frame=25461 fps= 76 q=-0.0 size=N/A time=00:17:41.93 bitrate=N/A speed=3.15x    frame=25509 fps= 76 q=-0.0 size=N/A time=00:17:43.93 bitrate=N/A speed=3.15x    frame=25548 fps= 76 q=-0.0 size=N/A time=00:17:45.56 bitrate=N/A speed=3.15x    frame=25587 fps= 76 q=-0.0 size=N/A time=00:17:47.19 bitrate=N/A speed=3.15x    frame=25625 fps= 76 q=-0.0 size=N/A time=00:17:48.77 bitrate=N/A speed=3.15x    frame=25664 fps= 76 q=-0.0 size=N/A time=00:17:50.40 bitrate=N/A speed=3.15x    frame=25702 fps= 76 q=-0.0 size=N/A time=00:17:51.98 bitrate=N/A speed=3.15x    frame=25741 fps= 76 q=-0.0 size=N/A time=00:17:53.61 bitrate=N/A speed=3.15x    frame=25781 fps= 76 q=-0.0 size=N/A time=00:17:55.28 bitrate=N/A speed=3.15x    frame=25821 fps= 76 q=-0.0 size=N/A time=00:17:56.95 bitrate=N/A speed=3.15x    frame=25852 fps= 76 q=-0.0 size=N/A time=00:17:58.24 bitrate=N/A speed=3.15x    frame=25900 fps= 76 q=-0.0 size=N/A time=00:18:00.24 bitrate=N/A speed=3.15x    frame=25940 fps= 76 q=-0.0 size=N/A time=00:18:01.91 bitrate=N/A speed=3.15x    frame=25977 fps= 76 q=-0.0 size=N/A time=00:18:03.45 bitrate=N/A speed=3.15x    frame=26017 fps= 76 q=-0.0 size=N/A time=00:18:05.12 bitrate=N/A speed=3.15x    frame=26057 fps= 76 q=-0.0 size=N/A time=00:18:06.79 bitrate=N/A speed=3.15x    frame=26091 fps= 76 q=-0.0 size=N/A time=00:18:08.21 bitrate=N/A speed=3.15x    frame=26135 fps= 76 q=-0.0 size=N/A time=00:18:10.04 bitrate=N/A speed=3.15x    frame=26173 fps= 76 q=-0.0 size=N/A time=00:18:11.63 bitrate=N/A speed=3.15x    frame=26212 fps= 76 q=-0.0 size=N/A time=00:18:13.25 bitrate=N/A speed=3.15x    frame=26248 fps= 76 q=-0.0 size=N/A time=00:18:14.76 bitrate=N/A speed=3.15x    frame=26284 fps= 76 q=-0.0 size=N/A time=00:18:16.26 bitrate=N/A speed=3.15x    frame=26330 fps= 76 q=-0.0 size=N/A time=00:18:18.18 bitrate=N/A speed=3.15x    frame=26368 fps= 76 q=-0.0 size=N/A time=00:18:19.76 bitrate=N/A speed=3.15x    frame=26401 fps= 76 q=-0.0 size=N/A time=00:18:21.14 bitrate=N/A speed=3.15x    frame=26446 fps= 76 q=-0.0 size=N/A time=00:18:23.01 bitrate=N/A speed=3.15x    frame=26486 fps= 76 q=-0.0 size=N/A time=00:18:24.68 bitrate=N/A speed=3.15x    frame=26523 fps= 76 q=-0.0 size=N/A time=00:18:26.23 bitrate=N/A speed=3.15x    frame=26558 fps= 76 q=-0.0 size=N/A time=00:18:27.68 bitrate=N/A speed=3.15x    frame=26601 fps= 76 q=-0.0 size=N/A time=00:18:29.48 bitrate=N/A speed=3.15x    frame=26640 fps= 76 q=-0.0 size=N/A time=00:18:31.11 bitrate=N/A speed=3.15x    frame=26673 fps= 76 q=-0.0 size=N/A time=00:18:32.48 bitrate=N/A speed=3.15x    frame=26711 fps= 76 q=-0.0 size=N/A time=00:18:34.07 bitrate=N/A speed=3.15x    frame=26757 fps= 76 q=-0.0 size=N/A time=00:18:35.98 bitrate=N/A speed=3.15x    frame=26788 fps= 76 q=-0.0 size=N/A time=00:18:37.28 bitrate=N/A speed=3.15x    frame=26835 fps= 76 q=-0.0 size=N/A time=00:18:39.24 bitrate=N/A speed=3.15x    frame=26874 fps= 76 q=-0.0 size=N/A time=00:18:40.86 bitrate=N/A speed=3.15x    frame=26910 fps= 76 q=-0.0 size=N/A time=00:18:42.37 bitrate=N/A speed=3.15x    frame=26954 fps= 76 q=-0.0 size=N/A time=00:18:44.20 bitrate=N/A speed=3.15x    frame=26992 fps= 76 q=-0.0 size=N/A time=00:18:45.79 bitrate=N/A speed=3.15x    frame=27031 fps= 76 q=-0.0 size=N/A time=00:18:47.41 bitrate=N/A speed=3.15x    frame=27070 fps= 76 q=-0.0 size=N/A time=00:18:49.04 bitrate=N/A speed=3.15x    frame=27106 fps= 76 q=-0.0 size=N/A time=00:18:50.54 bitrate=N/A speed=3.15x    frame=27149 fps= 76 q=-0.0 size=N/A time=00:18:52.33 bitrate=N/A speed=3.15x    frame=27188 fps= 76 q=-0.0 size=N/A time=00:18:53.96 bitrate=N/A speed=3.15x    frame=27227 fps= 76 q=-0.0 size=N/A time=00:18:55.59 bitrate=N/A speed=3.15x    frame=27267 fps= 76 q=-0.0 size=N/A time=00:18:57.26 bitrate=N/A speed=3.15x    frame=27305 fps= 76 q=-0.0 size=N/A time=00:18:58.84 bitrate=N/A speed=3.15x    frame=27345 fps= 76 q=-0.0 size=N/A time=00:19:00.51 bitrate=N/A speed=3.15x    frame=27384 fps= 76 q=-0.0 size=N/A time=00:19:02.14 bitrate=N/A speed=3.15x    frame=27423 fps= 76 q=-0.0 size=N/A time=00:19:03.76 bitrate=N/A speed=3.15x    frame=27462 fps= 76 q=-0.0 size=N/A time=00:19:05.39 bitrate=N/A speed=3.15x    frame=27499 fps= 76 q=-0.0 size=N/A time=00:19:06.93 bitrate=N/A speed=3.15x    frame=27540 fps= 76 q=-0.0 size=N/A time=00:19:08.64 bitrate=N/A speed=3.15x    frame=27580 fps= 76 q=-0.0 size=N/A time=00:19:10.31 bitrate=N/A speed=3.15x    frame=27618 fps= 76 q=-0.0 size=N/A time=00:19:11.90 bitrate=N/A speed=3.15x    frame=27659 fps= 76 q=-0.0 size=N/A time=00:19:13.61 bitrate=N/A speed=3.15x    frame=27694 fps= 76 q=-0.0 size=N/A time=00:19:15.07 bitrate=N/A speed=3.15x    frame=27736 fps= 76 q=-0.0 size=N/A time=00:19:16.82 bitrate=N/A speed=3.15x    frame=27767 fps= 76 q=-0.0 size=N/A time=00:19:18.11 bitrate=N/A speed=3.15x    frame=27814 fps= 76 q=-0.0 size=N/A time=00:19:20.07 bitrate=N/A speed=3.15x    frame=27853 fps= 76 q=-0.0 size=N/A time=00:19:21.70 bitrate=N/A speed=3.15x    frame=27892 fps= 76 q=-0.0 size=N/A time=00:19:23.32 bitrate=N/A speed=3.15x    frame=27930 fps= 76 q=-0.0 size=N/A time=00:19:24.91 bitrate=N/A speed=3.15x    frame=27968 fps= 76 q=-0.0 size=N/A time=00:19:26.49 bitrate=N/A speed=3.15x    frame=28008 fps= 76 q=-0.0 size=N/A time=00:19:28.16 bitrate=N/A speed=3.15x    frame=28043 fps= 76 q=-0.0 size=N/A time=00:19:29.62 bitrate=N/A speed=3.15x    frame=28086 fps= 76 q=-0.0 size=N/A time=00:19:31.42 bitrate=N/A speed=3.15x    frame=28124 fps= 76 q=-0.0 size=N/A time=00:19:33.00 bitrate=N/A speed=3.15x    frame=28164 fps= 76 q=-0.0 size=N/A time=00:19:34.67 bitrate=N/A speed=3.15x    frame=28202 fps= 76 q=-0.0 size=N/A time=00:19:36.25 bitrate=N/A speed=3.15x    frame=28242 fps= 76 q=-0.0 size=N/A time=00:19:37.92 bitrate=N/A speed=3.15x    frame=28282 fps= 76 q=-0.0 size=N/A time=00:19:39.59 bitrate=N/A speed=3.15x    frame=28321 fps= 76 q=-0.0 size=N/A time=00:19:41.22 bitrate=N/A speed=3.15x    frame=28361 fps= 76 q=-0.0 size=N/A time=00:19:42.89 bitrate=N/A speed=3.15x    frame=28399 fps= 76 q=-0.0 size=N/A time=00:19:44.47 bitrate=N/A speed=3.15x    frame=28438 fps= 76 q=-0.0 size=N/A time=00:19:46.10 bitrate=N/A speed=3.15x    frame=28471 fps= 76 q=-0.0 size=N/A time=00:19:47.47 bitrate=N/A speed=3.15x    frame=28516 fps= 76 q=-0.0 size=N/A time=00:19:49.35 bitrate=N/A speed=3.15x    frame=28552 fps= 76 q=-0.0 size=N/A time=00:19:50.85 bitrate=N/A speed=3.15x    frame=28594 fps= 76 q=-0.0 size=N/A time=00:19:52.60 bitrate=N/A speed=3.15x    frame=28633 fps= 76 q=-0.0 size=N/A time=00:19:54.23 bitrate=N/A speed=3.15x    frame=28660 fps= 76 q=-0.0 size=N/A time=00:19:55.36 bitrate=N/A speed=3.15x    frame=28705 fps= 76 q=-0.0 size=N/A time=00:19:57.23 bitrate=N/A speed=3.15x    frame=28749 fps= 76 q=-0.0 size=N/A time=00:19:59.07 bitrate=N/A speed=3.15x    frame=28788 fps= 76 q=-0.0 size=N/A time=00:20:00.69 bitrate=N/A speed=3.15x    frame=28827 fps= 76 q=-0.0 size=N/A time=00:20:02.32 bitrate=N/A speed=3.15x    frame=28866 fps= 76 q=-0.0 size=N/A time=00:20:03.95 bitrate=N/A speed=3.15x    frame=28899 fps= 76 q=-0.0 size=N/A time=00:20:05.32 bitrate=N/A speed=3.15x    frame=28943 fps= 76 q=-0.0 size=N/A time=00:20:07.16 bitrate=N/A speed=3.15x    frame=28978 fps= 76 q=-0.0 size=N/A time=00:20:08.62 bitrate=N/A speed=3.15x    frame=29024 fps= 76 q=-0.0 size=N/A time=00:20:10.54 bitrate=N/A speed=3.15x    frame=29061 fps= 76 q=-0.0 size=N/A time=00:20:12.08 bitrate=N/A speed=3.15x    frame=29101 fps= 76 q=-0.0 size=N/A time=00:20:13.75 bitrate=N/A speed=3.15x    frame=29140 fps= 76 q=-0.0 size=N/A time=00:20:15.38 bitrate=N/A speed=3.15x    frame=29179 fps= 76 q=-0.0 size=N/A time=00:20:17.00 bitrate=N/A speed=3.15x    frame=29218 fps= 76 q=-0.0 size=N/A time=00:20:18.63 bitrate=N/A speed=3.15x    frame=29247 fps= 76 q=-0.0 size=N/A time=00:20:19.84 bitrate=N/A speed=3.15x    frame=29292 fps= 76 q=-0.0 size=N/A time=00:20:21.72 bitrate=N/A speed=3.15x    frame=29337 fps= 76 q=-0.0 size=N/A time=00:20:23.59 bitrate=N/A speed=3.15x    frame=29376 fps= 76 q=-0.0 size=N/A time=00:20:25.22 bitrate=N/A speed=3.15x    frame=29414 fps= 76 q=-0.0 size=N/A time=00:20:26.80 bitrate=N/A speed=3.15x    frame=29453 fps= 76 q=-0.0 size=N/A time=00:20:28.43 bitrate=N/A speed=3.15x    frame=29493 fps= 76 q=-0.0 size=N/A time=00:20:30.10 bitrate=N/A speed=3.15x    frame=29531 fps= 76 q=-0.0 size=N/A time=00:20:31.68 bitrate=N/A speed=3.15x    frame=29571 fps= 76 q=-0.0 size=N/A time=00:20:33.35 bitrate=N/A speed=3.15x    frame=29607 fps= 76 q=-0.0 size=N/A time=00:20:34.85 bitrate=N/A speed=3.15x    frame=29650 fps= 76 q=-0.0 size=N/A time=00:20:36.65 bitrate=N/A speed=3.15x    frame=29683 fps= 76 q=-0.0 size=N/A time=00:20:38.02 bitrate=N/A speed=3.15x    frame=29728 fps= 76 q=-0.0 size=N/A time=00:20:39.90 bitrate=N/A speed=3.15x    frame=29763 fps= 76 q=-0.0 size=N/A time=00:20:41.36 bitrate=N/A speed=3.15x    frame=29807 fps= 76 q=-0.0 size=N/A time=00:20:43.20 bitrate=N/A speed=3.15x    frame=29846 fps= 76 q=-0.0 size=N/A time=00:20:44.82 bitrate=N/A speed=3.15x    frame=29875 fps= 76 q=-0.0 size=N/A time=00:20:46.03 bitrate=N/A speed=3.15x    frame=29920 fps= 76 q=-0.0 size=N/A time=00:20:47.91 bitrate=N/A speed=3.15x    frame=29964 fps= 76 q=-0.0 size=N/A time=00:20:49.74 bitrate=N/A speed=3.15x    frame=30004 fps= 76 q=-0.0 size=N/A time=00:20:51.41 bitrate=N/A speed=3.15x    frame=30043 fps= 76 q=-0.0 size=N/A time=00:20:53.04 bitrate=N/A speed=3.15x    frame=30076 fps= 76 q=-0.0 size=N/A time=00:20:54.41 bitrate=N/A speed=3.15x    frame=30123 fps= 76 q=-0.0 size=N/A time=00:20:56.38 bitrate=N/A speed=3.15x    frame=30158 fps= 76 q=-0.0 size=N/A time=00:20:57.83 bitrate=N/A speed=3.15x    frame=30194 fps= 76 q=-0.0 size=N/A time=00:20:59.34 bitrate=N/A speed=3.15x    frame=30239 fps= 76 q=-0.0 size=N/A time=00:21:01.21 bitrate=N/A speed=3.15x    frame=30279 fps= 76 q=-0.0 size=N/A time=00:21:02.88 bitrate=N/A speed=3.15x    frame=30319 fps= 76 q=-0.0 size=N/A time=00:21:04.55 bitrate=N/A speed=3.15x    frame=30356 fps= 76 q=-0.0 size=N/A time=00:21:06.09 bitrate=N/A speed=3.15x    frame=30392 fps= 76 q=-0.0 size=N/A time=00:21:07.59 bitrate=N/A speed=3.15x    frame=30434 fps= 76 q=-0.0 size=N/A time=00:21:09.35 bitrate=N/A speed=3.15x    frame=30473 fps= 76 q=-0.0 size=N/A time=00:21:10.97 bitrate=N/A speed=3.15x    frame=30512 fps= 76 q=-0.0 size=N/A time=00:21:12.60 bitrate=N/A speed=3.15x    frame=30552 fps= 76 q=-0.0 size=N/A time=00:21:14.27 bitrate=N/A speed=3.15x    frame=30584 fps= 76 q=-0.0 size=N/A time=00:21:15.60 bitrate=N/A speed=3.15x    frame=30632 fps= 76 q=-0.0 size=N/A time=00:21:17.60 bitrate=N/A speed=3.15x    frame=30670 fps= 76 q=-0.0 size=N/A time=00:21:19.19 bitrate=N/A speed=3.15x    frame=30710 fps= 76 q=-0.0 size=N/A time=00:21:20.86 bitrate=N/A speed=3.15x    frame=30749 fps= 76 q=-0.0 size=N/A time=00:21:22.48 bitrate=N/A speed=3.15x    frame=30789 fps= 76 q=-0.0 size=N/A time=00:21:24.15 bitrate=N/A speed=3.15x    frame=30826 fps= 76 q=-0.0 size=N/A time=00:21:25.70 bitrate=N/A speed=3.15x    frame=30867 fps= 76 q=-0.0 size=N/A time=00:21:27.41 bitrate=N/A speed=3.15x    frame=30901 fps= 76 q=-0.0 size=N/A time=00:21:28.82 bitrate=N/A speed=3.15x    frame=30946 fps= 76 q=-0.0 size=N/A time=00:21:30.70 bitrate=N/A speed=3.15x    frame=30985 fps= 76 q=-0.0 size=N/A time=00:21:32.33 bitrate=N/A speed=3.15x    frame=31024 fps= 76 q=-0.0 size=N/A time=00:21:33.95 bitrate=N/A speed=3.15x    frame=31063 fps= 76 q=-0.0 size=N/A time=00:21:35.58 bitrate=N/A speed=3.15x    frame=31102 fps= 76 q=-0.0 size=N/A time=00:21:37.21 bitrate=N/A speed=3.15x    frame=31139 fps= 76 q=-0.0 size=N/A time=00:21:38.75 bitrate=N/A speed=3.15x    frame=31180 fps= 76 q=-0.0 size=N/A time=00:21:40.46 bitrate=N/A speed=3.15x    frame=31218 fps= 76 q=-0.0 size=N/A time=00:21:42.05 bitrate=N/A speed=3.15x    frame=31257 fps= 76 q=-0.0 size=N/A time=00:21:43.67 bitrate=N/A speed=3.15x    frame=31296 fps= 76 q=-0.0 size=N/A time=00:21:45.30 bitrate=N/A speed=3.15x    frame=31337 fps= 76 q=-0.0 size=N/A time=00:21:47.01 bitrate=N/A speed=3.15x    frame=31375 fps= 76 q=-0.0 size=N/A time=00:21:48.59 bitrate=N/A speed=3.15x    frame=31415 fps= 76 q=-0.0 size=N/A time=00:21:50.26 bitrate=N/A speed=3.15x    frame=31454 fps= 76 q=-0.0 size=N/A time=00:21:51.89 bitrate=N/A speed=3.15x    frame=31493 fps= 76 q=-0.0 size=N/A time=00:21:53.52 bitrate=N/A speed=3.15x    frame=31531 fps= 76 q=-0.0 size=N/A time=00:21:55.10 bitrate=N/A speed=3.15x    frame=31571 fps= 76 q=-0.0 size=N/A time=00:21:56.77 bitrate=N/A speed=3.15x    frame=31602 fps= 76 q=-0.0 size=N/A time=00:21:58.06 bitrate=N/A speed=3.15x    frame=31648 fps= 76 q=-0.0 size=N/A time=00:21:59.98 bitrate=N/A speed=3.15x    frame=31685 fps= 76 q=-0.0 size=N/A time=00:22:01.52 bitrate=N/A speed=3.15x    frame=31720 fps= 76 q=-0.0 size=N/A time=00:22:02.98 bitrate=N/A speed=3.15x    frame=31764 fps= 76 q=-0.0 size=N/A time=00:22:04.82 bitrate=N/A speed=3.15x    frame=31804 fps= 76 q=-0.0 size=N/A time=00:22:06.49 bitrate=N/A speed=3.15x    frame=31843 fps= 76 q=-0.0 size=N/A time=00:22:08.11 bitrate=N/A speed=3.15x    frame=31883 fps= 76 q=-0.0 size=N/A time=00:22:09.78 bitrate=N/A speed=3.15x    frame=31919 fps= 76 q=-0.0 size=N/A time=00:22:11.28 bitrate=N/A speed=3.15x    frame=31953 fps= 76 q=-0.0 size=N/A time=00:22:12.70 bitrate=N/A speed=3.15x    frame=32000 fps= 76 q=-0.0 size=N/A time=00:22:14.66 bitrate=N/A speed=3.15x    frame=32035 fps= 76 q=-0.0 size=N/A time=00:22:16.12 bitrate=N/A speed=3.15x    frame=32079 fps= 76 q=-0.0 size=N/A time=00:22:17.96 bitrate=N/A speed=3.15x    frame=32113 fps= 76 q=-0.0 size=N/A time=00:22:19.37 bitrate=N/A speed=3.15x    frame=32158 fps= 76 q=-0.0 size=N/A time=00:22:21.25 bitrate=N/A speed=3.15x    frame=32198 fps= 76 q=-0.0 size=N/A time=00:22:22.92 bitrate=N/A speed=3.15x    frame=32235 fps= 76 q=-0.0 size=N/A time=00:22:24.46 bitrate=N/A speed=3.15x    frame=32276 fps= 76 q=-0.0 size=N/A time=00:22:26.17 bitrate=N/A speed=3.15x    frame=32315 fps= 76 q=-0.0 size=N/A time=00:22:27.80 bitrate=N/A speed=3.15x    frame=32354 fps= 76 q=-0.0 size=N/A time=00:22:29.43 bitrate=N/A speed=3.15x    frame=32394 fps= 76 q=-0.0 size=N/A time=00:22:31.09 bitrate=N/A speed=3.15x    frame=32433 fps= 76 q=-0.0 size=N/A time=00:22:32.72 bitrate=N/A speed=3.15x    frame=32472 fps= 76 q=-0.0 size=N/A time=00:22:34.35 bitrate=N/A speed=3.15x    frame=32513 fps= 76 q=-0.0 size=N/A time=00:22:36.06 bitrate=N/A speed=3.15x    frame=32545 fps= 76 q=-0.0 size=N/A time=00:22:37.39 bitrate=N/A speed=3.15x    frame=32591 fps= 76 q=-0.0 size=N/A time=00:22:39.31 bitrate=N/A speed=3.15x    frame=32627 fps= 76 q=-0.0 size=N/A time=00:22:40.81 bitrate=N/A speed=3.15x    frame=32669 fps= 76 q=-0.0 size=N/A time=00:22:42.56 bitrate=N/A speed=3.15x    frame=32708 fps= 76 q=-0.0 size=N/A time=00:22:44.19 bitrate=N/A speed=3.15x    frame=32741 fps= 76 q=-0.0 size=N/A time=00:22:45.57 bitrate=N/A speed=3.15x    frame=32787 fps= 76 q=-0.0 size=N/A time=00:22:47.49 bitrate=N/A speed=3.15x    frame=32822 fps= 76 q=-0.0 size=N/A time=00:22:48.95 bitrate=N/A speed=3.15x    frame=32867 fps= 76 q=-0.0 size=N/A time=00:22:50.82 bitrate=N/A speed=3.16x    frame=32895 fps= 76 q=-0.0 size=N/A time=00:22:51.99 bitrate=N/A speed=3.15x    frame=32939 fps= 76 q=-0.0 size=N/A time=00:22:53.83 bitrate=N/A speed=3.15x    frame=32968 fps= 76 q=-0.0 size=N/A time=00:22:55.04 bitrate=N/A speed=3.15x    frame=33022 fps= 76 q=-0.0 size=N/A time=00:22:57.29 bitrate=N/A speed=3.15x    frame=33060 fps= 76 q=-0.0 size=N/A time=00:22:58.87 bitrate=N/A speed=3.15x    frame=33100 fps= 76 q=-0.0 size=N/A time=00:23:00.54 bitrate=N/A speed=3.15x    frame=33138 fps= 76 q=-0.0 size=N/A time=00:23:02.13 bitrate=N/A speed=3.15x    frame=33173 fps= 76 q=-0.0 size=N/A time=00:23:03.59 bitrate=N/A speed=3.15x    frame=33217 fps= 76 q=-0.0 size=N/A time=00:23:05.42 bitrate=N/A speed=3.16x    frame=33255 fps= 76 q=-0.0 size=N/A time=00:23:07.01 bitrate=N/A speed=3.15x    frame=33292 fps= 76 q=-0.0 size=N/A time=00:23:08.55 bitrate=N/A speed=3.15x    frame=33332 fps= 76 q=-0.0 size=N/A time=00:23:10.22 bitrate=N/A speed=3.15x    frame=33363 fps= 76 q=-0.0 size=N/A time=00:23:11.51 bitrate=N/A speed=3.15x    frame=33408 fps= 76 q=-0.0 size=N/A time=00:23:13.39 bitrate=N/A speed=3.15x    frame=33446 fps= 76 q=-0.0 size=N/A time=00:23:14.97 bitrate=N/A speed=3.15x    frame=33480 fps= 76 q=-0.0 size=N/A time=00:23:16.39 bitrate=N/A speed=3.15x    frame=33523 fps= 76 q=-0.0 size=N/A time=00:23:18.18 bitrate=N/A speed=3.15x    frame=33562 fps= 76 q=-0.0 size=N/A time=00:23:19.81 bitrate=N/A speed=3.15x    frame=33593 fps= 76 q=-0.0 size=N/A time=00:23:21.10 bitrate=N/A speed=3.15x    frame=33640 fps= 76 q=-0.0 size=N/A time=00:23:23.06 bitrate=N/A speed=3.15x    frame=33672 fps= 76 q=-0.0 size=N/A time=00:23:24.40 bitrate=N/A speed=3.15x    frame=33717 fps= 76 q=-0.0 size=N/A time=00:23:26.27 bitrate=N/A speed=3.15x    frame=33753 fps= 76 q=-0.0 size=N/A time=00:23:27.78 bitrate=N/A speed=3.15x    frame=33788 fps= 76 q=-0.0 size=N/A time=00:23:29.24 bitrate=N/A speed=3.15x    frame=33822 fps= 76 q=-0.0 size=N/A time=00:23:30.65 bitrate=N/A speed=3.15x    frame=33875 fps= 76 q=-0.0 size=N/A time=00:23:32.86 bitrate=N/A speed=3.15x    frame=33909 fps= 76 q=-0.0 size=N/A time=00:23:34.28 bitrate=N/A speed=3.15x    frame=33954 fps= 76 q=-0.0 size=N/A time=00:23:36.16 bitrate=N/A speed=3.15x    frame=33994 fps= 76 q=-0.0 size=N/A time=00:23:37.83 bitrate=N/A speed=3.15x    frame=34033 fps= 76 q=-0.0 size=N/A time=00:23:39.45 bitrate=N/A speed=3.15x    frame=34067 fps= 76 q=-0.0 size=N/A time=00:23:40.87 bitrate=N/A speed=3.15x    frame=34110 fps= 76 q=-0.0 size=N/A time=00:23:42.67 bitrate=N/A speed=3.15x    frame=34148 fps= 76 q=-0.0 size=N/A time=00:23:44.25 bitrate=N/A speed=3.15x    frame=34175 fps= 76 q=-0.0 size=N/A time=00:23:45.38 bitrate=N/A speed=3.15x    frame=34228 fps= 76 q=-0.0 size=N/A time=00:23:47.59 bitrate=N/A speed=3.15x    frame=34268 fps= 76 q=-0.0 size=N/A time=00:23:49.26 bitrate=N/A speed=3.15x    frame=34306 fps= 76 q=-0.0 size=N/A time=00:23:50.84 bitrate=N/A speed=3.15x    frame=34344 fps= 76 q=-0.0 size=N/A time=00:23:52.43 bitrate=N/A speed=3.15x    frame=34384 fps= 76 q=-0.0 size=N/A time=00:23:54.09 bitrate=N/A speed=3.15x    frame=34423 fps= 76 q=-0.0 size=N/A time=00:23:55.72 bitrate=N/A speed=3.15x    frame=34462 fps= 76 q=-0.0 size=N/A time=00:23:57.35 bitrate=N/A speed=3.15x    frame=34501 fps= 76 q=-0.0 size=N/A time=00:23:58.97 bitrate=N/A speed=3.15x    frame=34538 fps= 76 q=-0.0 size=N/A time=00:24:00.52 bitrate=N/A speed=3.15x    frame=34579 fps= 76 q=-0.0 size=N/A time=00:24:02.23 bitrate=N/A speed=3.15x    frame=34611 fps= 76 q=-0.0 size=N/A time=00:24:03.56 bitrate=N/A speed=3.15x    frame=34644 fps= 76 q=-0.0 size=N/A time=00:24:04.94 bitrate=N/A speed=3.15x    frame=34685 fps= 76 q=-0.0 size=N/A time=00:24:06.65 bitrate=N/A speed=3.15x    frame=34722 fps= 76 q=-0.0 size=N/A time=00:24:08.19 bitrate=N/A speed=3.15x    frame=34766 fps= 76 q=-0.0 size=N/A time=00:24:10.03 bitrate=N/A speed=3.15x    frame=34801 fps= 76 q=-0.0 size=N/A time=00:24:11.49 bitrate=N/A speed=3.15x    frame=34844 fps= 76 q=-0.0 size=N/A time=00:24:13.28 bitrate=N/A speed=3.15x    frame=34882 fps= 76 q=-0.0 size=N/A time=00:24:14.87 bitrate=N/A speed=3.15x    frame=34922 fps= 76 q=-0.0 size=N/A time=00:24:16.53 bitrate=N/A speed=3.15x    frame=34960 fps= 76 q=-0.0 size=N/A time=00:24:18.12 bitrate=N/A speed=3.15x    frame=34990 fps= 76 q=-0.0 size=N/A time=00:24:19.37 bitrate=N/A speed=3.15x    frame=35035 fps= 76 q=-0.0 size=N/A time=00:24:21.25 bitrate=N/A speed=3.15x    frame=35076 fps= 76 q=-0.0 size=N/A time=00:24:22.96 bitrate=N/A speed=3.15x    frame=35115 fps= 76 q=-0.0 size=N/A time=00:24:24.58 bitrate=N/A speed=3.15x    frame=35153 fps= 76 q=-0.0 size=N/A time=00:24:26.17 bitrate=N/A speed=3.15x    frame=35192 fps= 76 q=-0.0 size=N/A time=00:24:27.79 bitrate=N/A speed=3.15x    frame=35229 fps= 76 q=-0.0 size=N/A time=00:24:29.34 bitrate=N/A speed=3.15x    frame=35269 fps= 76 q=-0.0 size=N/A time=00:24:31.01 bitrate=N/A speed=3.15x    frame=35307 fps= 76 q=-0.0 size=N/A time=00:24:32.59 bitrate=N/A speed=3.15x    frame=35346 fps= 76 q=-0.0 size=N/A time=00:24:34.22 bitrate=N/A speed=3.15x    frame=35384 fps= 76 q=-0.0 size=N/A time=00:24:35.80 bitrate=N/A speed=3.15x    frame=35416 fps= 76 q=-0.0 size=N/A time=00:24:37.14 bitrate=N/A speed=3.15x    frame=35461 fps= 76 q=-0.0 size=N/A time=00:24:39.01 bitrate=N/A speed=3.15x    frame=35499 fps= 76 q=-0.0 size=N/A time=00:24:40.60 bitrate=N/A speed=3.15x    frame=35535 fps= 76 q=-0.0 size=N/A time=00:24:42.10 bitrate=N/A speed=3.15x    frame=35578 fps= 76 q=-0.0 size=N/A time=00:24:43.89 bitrate=N/A speed=3.15x    frame=35612 fps= 76 q=-0.0 size=N/A time=00:24:45.31 bitrate=N/A speed=3.15x    frame=35654 fps= 76 q=-0.0 size=N/A time=00:24:47.06 bitrate=N/A speed=3.15x    frame=35693 fps= 76 q=-0.0 size=N/A time=00:24:48.69 bitrate=N/A speed=3.15x    frame=35732 fps= 76 q=-0.0 size=N/A time=00:24:50.32 bitrate=N/A speed=3.15x    frame=35770 fps= 76 q=-0.0 size=N/A time=00:24:51.90 bitrate=N/A speed=3.15x    frame=35803 fps= 76 q=-0.0 size=N/A time=00:24:53.28 bitrate=N/A speed=3.15x    frame=35851 fps= 76 q=-0.0 size=N/A time=00:24:55.28 bitrate=N/A speed=3.15x    frame=35890 fps= 76 q=-0.0 size=N/A time=00:24:56.91 bitrate=N/A speed=3.15x    frame=35928 fps= 76 q=-0.0 size=N/A time=00:24:58.49 bitrate=N/A speed=3.15x    frame=35967 fps= 76 q=-0.0 size=N/A time=00:25:00.12 bitrate=N/A speed=3.15x    frame=36001 fps= 76 q=-0.0 size=N/A time=00:25:01.54 bitrate=N/A speed=3.15x    frame=36045 fps= 76 q=-0.0 size=N/A time=00:25:03.37 bitrate=N/A speed=3.15x    frame=36084 fps= 76 q=-0.0 size=N/A time=00:25:05.00 bitrate=N/A speed=3.15x    frame=36123 fps= 76 q=-0.0 size=N/A time=00:25:06.63 bitrate=N/A speed=3.15x    frame=36161 fps= 76 q=-0.0 size=N/A time=00:25:08.21 bitrate=N/A speed=3.15x    frame=36199 fps= 76 q=-0.0 size=N/A time=00:25:09.79 bitrate=N/A speed=3.15x    frame=36242 fps= 76 q=-0.0 size=N/A time=00:25:11.59 bitrate=N/A speed=3.15x    [Parsed_ssim_10 @ 0000029ee1968f40] SSIM Y:0.993373 (21.786653) U:0.993862 (22.119904) V:0.993185 (21.665294) All:0.993423 (21.819731)
[out#0/null @ 0000029ee0faa4c0] video:15582KiB audio:283608KiB subtitle:0KiB other streams:0KiB global headers:0KiB muxing overhead: unknown
frame=36264 fps= 76 q=-0.0 Lsize=N/A time=00:25:12.51 bitrate=N/A speed=3.15x    
